<?xml version="1.0" standalone="yes"?>

<svg version="1.1" viewBox="0.0 0.0 486.9265091863517 113.8740157480315" fill="none" stroke="none" stroke-linecap="square" stroke-miterlimit="10" xmlns="http://www.w3.org/2000/svg" xmlns:xlink="http://www.w3.org/1999/xlink"><clipPath id="p.0"><path d="m0 0l486.9265 0l0 113.874016l-486.9265 0l0 -113.874016z" clip-rule="nonzero"></path></clipPath><g clip-path="url(#p.0)"><path fill="#000000" fill-opacity="0.0" d="m0 0l486.9265 0l0 113.874016l-486.9265 0z" fill-rule="evenodd"></path><path fill="#000000" fill-opacity="0.0" d="m-4.6141734 69.7336l487.3701 0l0 37.16535l-487.3701 0z" fill-rule="evenodd"></path><path fill="#434343" d="m16.135826 87.86735q0 0.34375 -0.03125 0.59375q-0.03125 0.234375 -0.09375 0.390625q-0.062499046 0.140625 -0.15624905 0.21875q-0.078125 0.0625 -0.1875 0.0625l-3.796875 0l0 12.21875q0 0.109375 -0.078125 0.203125q-0.0625 0.09375 -0.25 0.15625q-0.171875 0.0625 -0.46875 0.09375q-0.296875 0.046875 -0.75 0.046875q-0.4375 0 -0.734375 -0.046875q-0.296875 -0.03125 -0.484375 -0.09375q-0.171875 -0.0625 -0.25 -0.15625q-0.078125 -0.09375 -0.078125 -0.203125l0 -12.21875l-3.7968755 0q-0.109375 0 -0.203125 -0.0625q-0.078125 -0.078125 -0.140625 -0.21875q-0.046875 -0.15625 -0.078125 -0.390625q-0.03125 -0.25 -0.03125 -0.59375q0 -0.34375 0.03125 -0.59375q0.03125 -0.25 0.078125 -0.390625q0.0625 -0.140625 0.140625 -0.203125q0.09375 -0.078125 0.203125 -0.078125l10.6875 0q0.109375 0 0.1875 0.078125q0.09375 0.0625 0.15624905 0.203125q0.0625 0.140625 0.09375 0.390625q0.03125 0.25 0.03125 0.59375z" fill-rule="nonzero"></path><path fill="#434343" d="m27.143639 101.47672q0 0.09375 -0.046875 0.15625q-0.046875 0.0625 -0.15625 0.125q-0.09375 0.046875 -0.28125 0.0625q-0.1875 0.03125 -0.46875 0.03125q-0.296875 0 -0.484375 -0.03125q-0.1875 -0.015625 -0.296875 -0.0625q-0.109375 -0.0625 -0.15625 -0.125q-0.046875 -0.0625 -0.046875 -0.15625l0 -6.171875q0 -0.90625 -0.140625 -1.453125q-0.140625 -0.546875 -0.40625 -0.9375q-0.265625 -0.40625 -0.703125 -0.609375q-0.421875 -0.21875 -0.984375 -0.21875q-0.71875 0 -1.453125 0.515625q-0.71875 0.515625 -1.515625 1.5l0 7.375q0 0.09375 -0.046875 0.15625q-0.046875 0.0625 -0.15625 0.125q-0.109375 0.046875 -0.296875 0.0625q-0.1875 0.03125 -0.484375 0.03125q-0.28125 0 -0.46875 -0.03125q-0.1875 -0.015625 -0.296875 -0.0625q-0.109375 -0.0625 -0.15625 -0.125q-0.03125 -0.0625 -0.03125 -0.15625l0 -15.65625q0 -0.09375 0.03125 -0.15625q0.046875 -0.078125 0.15625 -0.125q0.109375 -0.046875 0.296875 -0.0625q0.1875 -0.03125 0.46875 -0.03125q0.296875 0 0.484375 0.03125q0.1875 0.015625 0.296875 0.0625q0.109375 0.046875 0.15625 0.125q0.046875 0.0625 0.046875 0.15625l0 6.3125q0.828125 -0.875 1.671875 -1.296875q0.84375 -0.4375 1.703125 -0.4375q1.046875 0 1.765625 0.359375q0.71875 0.359375 1.15625 0.96875q0.453125 0.59375 0.640625 1.390625q0.203125 0.796875 0.203125 1.9375l0 6.421875zm12.53125 -5.734375q0 0.46875 -0.234375 0.65625q-0.21875 0.1875 -0.515625 0.1875l-6.921875 0q0 0.890625 0.171875 1.59375q0.1875 0.703125 0.59375 1.203125q0.40625 0.5 1.0625 0.78125q0.65625 0.265625 1.609375 0.265625q0.75 0 1.328125 -0.125q0.59375 -0.125 1.015625 -0.28125q0.4375 -0.15625 0.703125 -0.265625q0.28125 -0.125 0.421875 -0.125q0.078125 0 0.140625 0.046875q0.078125 0.03125 0.109375 0.109375q0.03125 0.078125 0.046875 0.234375q0.015625 0.140625 0.015625 0.359375q0 0.140625 -0.015625 0.265625q0 0.109375 -0.015625 0.203125q-0.015625 0.078125 -0.0625 0.15625q-0.046875 0.0625 -0.109375 0.125q-0.0625 0.0625 -0.375 0.21875q-0.3125 0.140625 -0.828125 0.28125q-0.5 0.140625 -1.171875 0.25q-0.65625 0.109375 -1.40625 0.109375q-1.296875 0 -2.28125 -0.359375q-0.96875 -0.359375 -1.640625 -1.078125q-0.671875 -0.71875 -1.015625 -1.796875q-0.328125 -1.078125 -0.328125 -2.5q0 -1.359375 0.34375 -2.4375q0.359375 -1.09375 1.015625 -1.84375q0.671875 -0.765625 1.609375 -1.171875q0.9375 -0.40625 2.09375 -0.40625q1.234375 0 2.109375 0.40625q0.875 0.390625 1.4375 1.078125q0.5625 0.671875 0.828125 1.578125q0.265625 0.90625 0.265625 1.9375l0 0.34375zm-1.953125 -0.5625q0.046875 -1.53125 -0.671875 -2.390625q-0.703125 -0.875 -2.09375 -0.875q-0.71875 0 -1.265625 0.28125q-0.53125 0.265625 -0.90625 0.71875q-0.359375 0.4375 -0.5625 1.03125q-0.1875 0.578125 -0.21875 1.234375l5.71875 0zm14.707031 0.90625q0 1.296875 -0.34375 2.375q-0.34375 1.078125 -1.015625 1.875q-0.671875 0.78125 -1.6875 1.21875q-1.015625 0.4375 -2.34375 0.4375q-1.3125 0 -2.28125 -0.375q-0.953125 -0.390625 -1.609375 -1.125q-0.640625 -0.75 -0.953125 -1.796875q-0.3125 -1.0625 -0.3125 -2.390625q0 -1.296875 0.328125 -2.375q0.328125 -1.09375 1.0 -1.875q0.6875 -0.78125 1.6875 -1.21875q1.015625 -0.4375 2.359375 -0.4375q1.296875 0 2.265625 0.390625q0.96875 0.390625 1.609375 1.125q0.640625 0.734375 0.96875 1.796875q0.328125 1.046875 0.328125 2.375zm-2.046875 0.125q0 -0.84375 -0.15625 -1.609375q-0.15625 -0.765625 -0.53125 -1.328125q-0.359375 -0.578125 -0.984375 -0.90625q-0.609375 -0.34375 -1.53125 -0.34375q-0.859375 0 -1.484375 0.3125q-0.609375 0.296875 -1.015625 0.859375q-0.390625 0.546875 -0.59375 1.3125q-0.1875 0.765625 -0.1875 1.65625q0 0.875 0.15625 1.640625q0.171875 0.75 0.53125 1.328125q0.375 0.5625 0.984375 0.90625q0.625 0.328125 1.5625 0.328125q0.84375 0 1.453125 -0.296875q0.625 -0.3125 1.015625 -0.859375q0.40625 -0.5625 0.59375 -1.3125q0.1875 -0.765625 0.1875 -1.6875zm11.046875 -4.59375q0 0.265625 -0.015625 0.4375q0 0.171875 -0.046875 0.28125q-0.03125 0.09375 -0.078125 0.15625q-0.046875 0.046875 -0.140625 0.046875q-0.09375 0 -0.234375 -0.046875q-0.140625 -0.0625 -0.3125 -0.109375q-0.15625 -0.0625 -0.375 -0.109375q-0.203125 -0.046875 -0.453125 -0.046875q-0.296875 0 -0.578125 0.125q-0.28125 0.109375 -0.59375 0.390625q-0.3125 0.265625 -0.65625 0.71875q-0.328125 0.4375 -0.734375 1.078125l0 6.9375q0 0.09375 -0.046875 0.15625q-0.046875 0.0625 -0.15625 0.125q-0.109375 0.046875 -0.296875 0.0625q-0.1875 0.03125 -0.484375 0.03125q-0.28125 0 -0.46875 -0.03125q-0.1875 -0.015625 -0.296875 -0.0625q-0.109375 -0.0625 -0.15625 -0.125q-0.03125 -0.0625 -0.03125 -0.15625l0 -10.546875q0 -0.09375 0.03125 -0.15625q0.03125 -0.0625 0.140625 -0.109375q0.109375 -0.0625 0.265625 -0.078125q0.171875 -0.015625 0.4375 -0.015625q0.265625 0 0.421875 0.015625q0.171875 0.015625 0.265625 0.078125q0.09375 0.046875 0.140625 0.109375q0.046875 0.0625 0.046875 0.15625l0 1.53125q0.421875 -0.625 0.796875 -1.015625q0.390625 -0.40625 0.734375 -0.625q0.34375 -0.234375 0.671875 -0.328125q0.328125 -0.09375 0.671875 -0.09375q0.15625 0 0.34375 0.03125q0.203125 0.015625 0.40625 0.0625q0.21875 0.046875 0.375 0.109375q0.171875 0.046875 0.234375 0.109375q0.078125 0.0625 0.09375 0.109375q0.03125 0.046875 0.046875 0.140625q0.03125 0.078125 0.03125 0.234375q0 0.15625 0 0.421875zm11.2109375 4.125q0 0.46875 -0.234375 0.65625q-0.21875 0.1875 -0.515625 0.1875l-6.921875 0q0 0.890625 0.171875 1.59375q0.1875 0.703125 0.59375 1.203125q0.40625 0.5 1.0625 0.78125q0.65625 0.265625 1.609375 0.265625q0.75 0 1.328125 -0.125q0.59375 -0.125 1.015625 -0.28125q0.4375 -0.15625 0.703125 -0.265625q0.28125 -0.125 0.421875 -0.125q0.078125 0 0.140625 0.046875q0.078125 0.03125 0.109375 0.109375q0.03125 0.078125 0.046875 0.234375q0.015625 0.140625 0.015625 0.359375q0 0.140625 -0.015625 0.265625q0 0.109375 -0.015625 0.203125q-0.015625 0.078125 -0.0625 0.15625q-0.046875 0.0625 -0.109375 0.125q-0.0625 0.0625 -0.375 0.21875q-0.3125 0.140625 -0.828125 0.28125q-0.5 0.140625 -1.171875 0.25q-0.65625 0.109375 -1.40625 0.109375q-1.296875 0 -2.28125 -0.359375q-0.96875 -0.359375 -1.640625 -1.078125q-0.671875 -0.71875 -1.015625 -1.796875q-0.328125 -1.078125 -0.328125 -2.5q0 -1.359375 0.34375 -2.4375q0.359375 -1.09375 1.015625 -1.84375q0.671875 -0.765625 1.609375 -1.171875q0.9375 -0.40625 2.09375 -0.40625q1.234375 0 2.109375 0.40625q0.875 0.390625 1.4375 1.078125q0.5625 0.671875 0.828125 1.578125q0.265625 0.90625 0.265625 1.9375l0 0.34375zm-1.953125 -0.5625q0.046875 -1.53125 -0.671875 -2.390625q-0.703125 -0.875 -2.09375 -0.875q-0.71875 0 -1.265625 0.28125q-0.53125 0.265625 -0.90625 0.71875q-0.359375 0.4375 -0.5625 1.03125q-0.1875 0.578125 -0.21875 1.234375l5.71875 0zm10.378906 5.53125q0 0.328125 -0.046875 0.53125q-0.046875 0.203125 -0.140625 0.296875q-0.09375 0.09375 -0.28125 0.1875q-0.1875 0.078125 -0.4375 0.125q-0.234375 0.046875 -0.5 0.078125q-0.265625 0.046875 -0.546875 0.046875q-0.8125 0 -1.40625 -0.21875q-0.578125 -0.21875 -0.953125 -0.65625q-0.375 -0.4375 -0.546875 -1.109375q-0.171875 -0.6875 -0.171875 -1.59375l0 -6.171875l-1.46875 0q-0.1875 0 -0.296875 -0.1875q-0.09375 -0.1875 -0.09375 -0.609375q0 -0.21875 0.03125 -0.359375q0.03125 -0.15625 0.078125 -0.25q0.046875 -0.109375 0.109375 -0.140625q0.078125 -0.046875 0.171875 -0.046875l1.46875 0l0 -2.515625q0 -0.078125 0.03125 -0.140625q0.046875 -0.078125 0.15625 -0.125q0.125 -0.0625 0.3125 -0.078125q0.1875 -0.03125 0.46875 -0.03125q0.28125 0 0.46875 0.03125q0.1875 0.015625 0.296875 0.078125q0.109375 0.046875 0.15625 0.125q0.046875 0.0625 0.046875 0.140625l0 2.515625l2.703125 0q0.09375 0 0.15625 0.046875q0.078125 0.03125 0.125 0.140625q0.0625 0.09375 0.078125 0.25q0.03125 0.140625 0.03125 0.359375q0 0.421875 -0.109375 0.609375q-0.109375 0.1875 -0.28125 0.1875l-2.703125 0l0 5.890625q0 1.09375 0.3125 1.65625q0.328125 0.546875 1.15625 0.546875q0.28125 0 0.484375 -0.046875q0.21875 -0.0625 0.375 -0.109375q0.171875 -0.0625 0.28125 -0.109375q0.125 -0.0625 0.21875 -0.0625q0.046875 0 0.09375 0.03125q0.0625 0.03125 0.09375 0.109375q0.03125 0.078125 0.046875 0.21875q0.03125 0.140625 0.03125 0.359375zm4.4921875 0.765625q0 0.09375 -0.046875 0.15625q-0.046875 0.0625 -0.15625 0.125q-0.109375 0.046875 -0.296875 0.0625q-0.1875 0.03125 -0.484375 0.03125q-0.28125 0 -0.46875 -0.03125q-0.1875 -0.015625 -0.296875 -0.0625q-0.109375 -0.0625 -0.15625 -0.125q-0.03125 -0.0625 -0.03125 -0.15625l0 -10.546875q0 -0.078125 0.03125 -0.140625q0.046875 -0.078125 0.15625 -0.125q0.109375 -0.046875 0.296875 -0.0625q0.1875 -0.03125 0.46875 -0.03125q0.296875 0 0.484375 0.03125q0.1875 0.015625 0.296875 0.0625q0.109375 0.046875 0.15625 0.125q0.046875 0.0625 0.046875 0.140625l0 10.546875zm0.21875 -14.109375q0 0.6875 -0.265625 0.9375q-0.25 0.234375 -0.9375 0.234375q-0.6875 0 -0.9375 -0.234375q-0.25 -0.25 -0.25 -0.90625q0 -0.6875 0.25 -0.921875q0.265625 -0.25 0.953125 -0.25q0.6875 0 0.9375 0.234375q0.25 0.234375 0.25 0.90625zm10.9296875 12.5q0 0.203125 -0.015625 0.359375q0 0.140625 -0.03125 0.25q-0.03125 0.09375 -0.078125 0.171875q-0.03125 0.0625 -0.1875 0.21875q-0.140625 0.140625 -0.5 0.359375q-0.34375 0.21875 -0.78125 0.390625q-0.4375 0.171875 -0.953125 0.265625q-0.515625 0.109375 -1.078125 0.109375q-1.125 0 -2.015625 -0.375q-0.875 -0.375 -1.46875 -1.09375q-0.59375 -0.71875 -0.90625 -1.765625q-0.296875 -1.046875 -0.296875 -2.421875q0 -1.5625 0.375 -2.671875q0.375 -1.125 1.03125 -1.84375q0.671875 -0.71875 1.5625 -1.0625q0.90625 -0.34375 1.953125 -0.34375q0.5 0 0.96875 0.09375q0.484375 0.09375 0.875 0.25q0.40625 0.15625 0.703125 0.359375q0.3125 0.1875 0.453125 0.328125q0.140625 0.140625 0.1875 0.234375q0.0625 0.078125 0.09375 0.1875q0.046875 0.109375 0.046875 0.25q0.015625 0.140625 0.015625 0.34375q0 0.46875 -0.109375 0.65625q-0.09375 0.171875 -0.25 0.171875q-0.171875 0 -0.40625 -0.1875q-0.234375 -0.203125 -0.59375 -0.4375q-0.34375 -0.234375 -0.84375 -0.421875q-0.484375 -0.203125 -1.171875 -0.203125q-1.390625 0 -2.140625 1.078125q-0.734375 1.078125 -0.734375 3.109375q0 1.015625 0.1875 1.796875q0.1875 0.765625 0.5625 1.28125q0.375 0.515625 0.921875 0.765625q0.546875 0.25 1.25 0.25q0.671875 0 1.171875 -0.203125q0.5 -0.21875 0.875 -0.46875q0.375 -0.25 0.625 -0.453125q0.25 -0.21875 0.390625 -0.21875q0.078125 0 0.140625 0.046875q0.0625 0.046875 0.09375 0.171875q0.046875 0.109375 0.0625 0.28125q0.015625 0.15625 0.015625 0.390625zm10.5078125 1.625q0 0.140625 -0.09375 0.21875q-0.09375 0.0625 -0.265625 0.09375q-0.15625 0.046875 -0.46875 0.046875q-0.296875 0 -0.484375 -0.046875q-0.1875 -0.03125 -0.265625 -0.09375q-0.078125 -0.078125 -0.078125 -0.21875l0 -1.0625q-0.6875 0.75 -1.546875 1.15625q-0.84375 0.40625 -1.796875 0.40625q-0.828125 0 -1.5 -0.21875q-0.671875 -0.21875 -1.15625 -0.625q-0.46875 -0.40625 -0.734375 -1.0q-0.265625 -0.609375 -0.265625 -1.359375q0 -0.890625 0.359375 -1.546875q0.375 -0.65625 1.046875 -1.09375q0.6875 -0.4375 1.671875 -0.65625q0.984375 -0.21875 2.203125 -0.21875l1.453125 0l0 -0.8125q0 -0.609375 -0.125 -1.078125q-0.125 -0.46875 -0.421875 -0.78125q-0.28125 -0.3125 -0.734375 -0.46875q-0.453125 -0.15625 -1.125 -0.15625q-0.71875 0 -1.296875 0.171875q-0.5625 0.171875 -0.984375 0.375q-0.421875 0.203125 -0.71875 0.375q-0.28125 0.171875 -0.421875 0.171875q-0.09375 0 -0.171875 -0.046875q-0.0625 -0.046875 -0.125 -0.140625q-0.046875 -0.09375 -0.078125 -0.234375q-0.015625 -0.15625 -0.015625 -0.328125q0 -0.296875 0.03125 -0.46875q0.046875 -0.171875 0.203125 -0.3125q0.171875 -0.15625 0.546875 -0.359375q0.390625 -0.21875 0.890625 -0.375q0.515625 -0.171875 1.109375 -0.28125q0.59375 -0.125 1.203125 -0.125q1.140625 0 1.9375 0.265625q0.796875 0.25 1.28125 0.75q0.5 0.5 0.71875 1.25q0.21875 0.734375 0.21875 1.71875l0 7.109375zm-1.921875 -4.8125l-1.640625 0q-0.796875 0 -1.390625 0.140625q-0.578125 0.125 -0.96875 0.390625q-0.390625 0.265625 -0.578125 0.640625q-0.171875 0.359375 -0.171875 0.84375q0 0.8125 0.515625 1.296875q0.53125 0.484375 1.46875 0.484375q0.75 0 1.40625 -0.375q0.65625 -0.390625 1.359375 -1.1875l0 -2.234375zm7.4179688 4.796875q0 0.09375 -0.046875 0.15625q-0.046875 0.0625 -0.15625 0.125q-0.109375 0.046875 -0.296875 0.0625q-0.1875 0.03125 -0.484375 0.03125q-0.28125 0 -0.46875 -0.03125q-0.1875 -0.015625 -0.296875 -0.0625q-0.109375 -0.0625 -0.15625 -0.125q-0.03125 -0.0625 -0.03125 -0.15625l0 -15.65625q0 -0.09375 0.03125 -0.15625q0.046875 -0.078125 0.15625 -0.125q0.109375 -0.046875 0.296875 -0.0625q0.1875 -0.03125 0.46875 -0.03125q0.296875 0 0.484375 0.03125q0.1875 0.015625 0.296875 0.0625q0.109375 0.046875 0.15625 0.125q0.046875 0.0625 0.046875 0.15625l0 15.65625z" fill-rule="nonzero"></path><path fill="#434343" d="m121.17489 97.7736q0 -0.640625 0.171875 -1.21875q0.1875 -0.578125 0.5625 -1.125q0.375 -0.546875 0.96875 -1.046875q0.609375 -0.515625 1.46875 -1.03125q-0.46875 -0.640625 -0.8125 -1.15625q-0.328125 -0.515625 -0.546875 -0.953125q-0.21875 -0.453125 -0.3125 -0.859375q-0.09375 -0.40625 -0.09375 -0.8125q0 -0.71875 0.25 -1.375q0.25 -0.671875 0.78125 -1.171875q0.546875 -0.515625 1.40625 -0.8125q0.859375 -0.3125 2.078125 -0.3125q1.0312576 0 1.7812576 0.234375q0.765625 0.21875 1.25 0.625q0.5 0.40625 0.75 1.0q0.265625 0.578125 0.265625 1.28125q0 0.703125 -0.234375 1.28125q-0.21875 0.5625 -0.71875 1.109375q-0.484375 0.53125 -1.25 1.0625q-0.765625 0.53125 -1.8593826 1.125q0.40625 0.484375 0.875 1.0q0.46875763 0.515625 0.9687576 1.046875q0.515625 0.53125 1.046875 1.046875q0.53125 0.5 1.046875 0.96875q0.234375 -0.3125 0.421875 -0.71875q0.1875 -0.40625 0.328125 -0.859375q0.140625 -0.453125 0.203125 -0.921875q0.078125 -0.46875 0.078125 -0.9375l0 -0.421875q0 -0.125 0.03125 -0.203125q0.046875 -0.078125 0.140625 -0.125q0.09375 -0.046875 0.28125 -0.0625q0.1875 -0.03125 0.46875 -0.03125q0.265625 0 0.4375 0.015625q0.1875 0 0.296875 0.046875q0.125 0.03125 0.171875 0.125q0.0625 0.09375 0.0625 0.234375l0 0.296875q0 0.65625 -0.109375 1.296875q-0.109375 0.625 -0.3125 1.234375q-0.1875 0.59375 -0.484375 1.15625q-0.28125 0.546875 -0.625 1.015625q0.515625 0.421875 0.90625 0.703125q0.40625 0.28125 0.671875 0.453125q0.28125 0.171875 0.453125 0.25q0.1875 0.0625 0.3125 0.0625q0.109375 0 0.21875 0q0.109375 -0.015625 0.171875 0.03125q0.0625 0.046875 0.09375 0.1875q0.03125 0.140625 0.03125 0.4375q0 0.28125 -0.015625 0.46875q0 0.171875 -0.03125 0.265625q-0.03125 0.078125 -0.109375 0.140625q-0.0625 0.0625 -0.25 0.109375q-0.1875 0.046875 -0.484375 0.046875q-0.234375 0 -0.515625 -0.09375q-0.28125 -0.078125 -0.65625 -0.28125q-0.375 -0.203125 -0.875 -0.546875q-0.5 -0.359375 -1.171875 -0.90625q-0.484375 0.40625 -1.03125 0.75q-0.546875 0.328125 -1.171875 0.578125q-0.609375 0.234375 -1.2812576 0.375q-0.671875 0.140625 -1.453125 0.140625q-0.75 0 -1.40625 -0.140625q-0.65625 -0.125 -1.21875 -0.359375q-0.5625 -0.25 -1.015625 -0.609375q-0.4375 -0.359375 -0.75 -0.828125q-0.3125 -0.46875 -0.484375 -1.03125q-0.171875 -0.578125 -0.171875 -1.25zm3.453125 -8.359375q0 0.328125 0.09375 0.65625q0.09375 0.328125 0.265625 0.6875q0.1875 0.34375 0.453125 0.765625q0.265625 0.40625 0.625 0.90625q0.859375 -0.484375 1.4375 -0.875q0.5781326 -0.40625 0.9218826 -0.78125q0.359375 -0.375 0.515625 -0.75q0.15625 -0.375 0.15625 -0.796875q0 -0.34375 -0.125 -0.65625q-0.125 -0.3125 -0.390625 -0.546875q-0.265625 -0.25 -0.6875076 -0.390625q-0.40625 -0.140625 -0.96875 -0.140625q-0.625 0 -1.0625 0.171875q-0.421875 0.15625 -0.703125 0.421875q-0.265625 0.25 -0.40625 0.609375q-0.125 0.34375 -0.125 0.71875zm-1.359375 8.15625q0 0.609375 0.203125 1.125q0.21875 0.5 0.609375 0.875q0.40625 0.359375 1.0 0.5625q0.59375 0.203125 1.375 0.203125q0.484375 0 0.9375 -0.09375q0.46875 -0.09375 0.8750076 -0.265625q0.421875 -0.171875 0.796875 -0.40625q0.375 -0.25 0.6875 -0.515625q-0.609375 -0.53125 -1.21875 -1.09375q-0.5937576 -0.578125 -1.1562576 -1.140625q-0.5625 -0.578125 -1.09375 -1.140625q-0.515625 -0.578125 -0.953125 -1.109375q-0.578125 0.375 -0.96875 0.75q-0.390625 0.359375 -0.640625 0.734375q-0.234375 0.359375 -0.34375 0.734375q-0.109375 0.375 -0.109375 0.78125zm-3.359375 -10.96875l0 0z" fill-rule="nonzero"></path><path fill="#434343" d="m152.34677 100.57047q0 0.328125 -0.03125 0.5625q-0.03125 0.234375 -0.09375 0.375q-0.046875 0.140625 -0.140625 0.203125q-0.078125 0.0625 -0.1875 0.0625l-7.625 0q-0.375 0 -0.640625 -0.21875q-0.265625 -0.234375 -0.265625 -0.75l0 -13.21875q0 -0.515625 0.265625 -0.75q0.265625 -0.234375 0.640625 -0.234375l7.578125 0q0.109375 0 0.1875 0.0625q0.078125 0.0625 0.140625 0.21875q0.0625 0.140625 0.078125 0.375q0.03125 0.21875 0.03125 0.5625q0 0.328125 -0.03125 0.5625q-0.015625 0.234375 -0.078125 0.375q-0.0625 0.140625 -0.140625 0.203125q-0.078125 0.0625 -0.1875 0.0625l-5.421875 0l0 3.703125l4.59375 0q0.09375 0 0.1875 0.0625q0.09375 0.0625 0.140625 0.203125q0.0625 0.125 0.09375 0.359375q0.03125 0.234375 0.03125 0.5625q0 0.328125 -0.03125 0.5625q-0.03125 0.21875 -0.09375 0.359375q-0.046875 0.125 -0.140625 0.1875q-0.09375 0.0625 -0.1875 0.0625l-4.59375 0l0 4.265625l5.46875 0q0.109375 0 0.1875 0.078125q0.09375 0.0625 0.140625 0.203125q0.0625 0.140625 0.09375 0.375q0.03125 0.21875 0.03125 0.5625z" fill-rule="nonzero"></path><path fill="#434343" d="m170.85068 101.47672q0 0.09375 -0.046875 0.15625q-0.046875 0.0625 -0.15625 0.125q-0.09375 0.046875 -0.28125 0.0625q-0.1875 0.03125 -0.46875 0.03125q-0.296875 0 -0.484375 -0.03125q-0.1875 -0.015625 -0.296875 -0.0625q-0.109375 -0.0625 -0.15625 -0.125q-0.046875 -0.0625 -0.046875 -0.15625l0 -6.40625q0 -0.671875 -0.125 -1.21875q-0.109375 -0.546875 -0.375 -0.9375q-0.25 -0.40625 -0.65625 -0.609375q-0.390625 -0.21875 -0.9375 -0.21875q-0.671875 0 -1.34375 0.515625q-0.671875 0.515625 -1.484375 1.5l0 7.375q0 0.09375 -0.046875 0.15625q-0.046875 0.0625 -0.15625 0.125q-0.109375 0.046875 -0.296875 0.0625q-0.1875 0.03125 -0.46875 0.03125q-0.265625 0 -0.46875 -0.03125q-0.1875 -0.015625 -0.296875 -0.0625q-0.109375 -0.0625 -0.15625 -0.125q-0.03125 -0.0625 -0.03125 -0.15625l0 -6.40625q0 -0.671875 -0.140625 -1.21875q-0.125 -0.546875 -0.390625 -0.9375q-0.25 -0.40625 -0.640625 -0.609375q-0.390625 -0.21875 -0.9375 -0.21875q-0.65625 0 -1.34375 0.515625q-0.671875 0.515625 -1.46875 1.5l0 7.375q0 0.09375 -0.046875 0.15625q-0.046875 0.0625 -0.15625 0.125q-0.109375 0.046875 -0.296875 0.0625q-0.1875 0.03125 -0.484375 0.03125q-0.28125 0 -0.46875 -0.03125q-0.1875 -0.015625 -0.296875 -0.0625q-0.109375 -0.0625 -0.15625 -0.125q-0.03125 -0.0625 -0.03125 -0.15625l0 -10.546875q0 -0.09375 0.03125 -0.15625q0.03125 -0.0625 0.140625 -0.109375q0.109375 -0.0625 0.265625 -0.078125q0.171875 -0.015625 0.4375 -0.015625q0.265625 0 0.421875 0.015625q0.171875 0.015625 0.265625 0.078125q0.09375 0.046875 0.140625 0.109375q0.046875 0.0625 0.046875 0.15625l0 1.390625q0.890625 -0.984375 1.71875 -1.453125q0.84375 -0.46875 1.703125 -0.46875q0.65625 0 1.171875 0.15625q0.515625 0.15625 0.90625 0.4375q0.40625 0.265625 0.6875 0.65625q0.28125 0.375 0.46875 0.84375q0.53125 -0.578125 1.0 -0.96875q0.484375 -0.40625 0.921875 -0.640625q0.4375 -0.25 0.84375 -0.359375q0.421875 -0.125 0.84375 -0.125q1.03125 0 1.71875 0.359375q0.6875 0.359375 1.109375 0.96875q0.4375 0.59375 0.609375 1.390625q0.1875 0.796875 0.1875 1.6875l0 6.671875zm13.234375 -5.4375q0 1.390625 -0.296875 2.5q-0.296875 1.09375 -0.890625 1.859375q-0.578125 0.765625 -1.4375 1.1875q-0.84375 0.40625 -1.953125 0.40625q-0.46875 0 -0.875 -0.09375q-0.390625 -0.09375 -0.765625 -0.28125q-0.375 -0.203125 -0.75 -0.5q-0.375 -0.3125 -0.796875 -0.734375l0 5.28125q0 0.09375 -0.046875 0.15625q-0.046875 0.078125 -0.15625 0.125q-0.109375 0.046875 -0.296875 0.0625q-0.1875 0.03125 -0.484375 0.03125q-0.28125 0 -0.46875 -0.03125q-0.1875 -0.015625 -0.296875 -0.0625q-0.109375 -0.046875 -0.15625 -0.125q-0.03125 -0.0625 -0.03125 -0.15625l0 -14.734375q0 -0.109375 0.03125 -0.171875q0.03125 -0.0625 0.140625 -0.109375q0.109375 -0.046875 0.265625 -0.0625q0.171875 -0.015625 0.40625 -0.015625q0.25 0 0.40625 0.015625q0.15625 0.015625 0.25 0.0625q0.109375 0.046875 0.15625 0.109375q0.046875 0.0625 0.046875 0.171875l0 1.421875q0.46875 -0.5 0.90625 -0.859375q0.453125 -0.359375 0.90625 -0.59375q0.453125 -0.25 0.921875 -0.375q0.484375 -0.125 1.015625 -0.125q1.140625 0 1.953125 0.453125q0.8125 0.4375 1.3125 1.21875q0.515625 0.765625 0.75 1.796875q0.234375 1.03125 0.234375 2.171875zm-2.046875 0.21875q0 -0.796875 -0.125 -1.546875q-0.109375 -0.765625 -0.421875 -1.34375q-0.296875 -0.59375 -0.796875 -0.9375q-0.5 -0.359375 -1.25 -0.359375q-0.375 0 -0.75 0.109375q-0.359375 0.109375 -0.734375 0.359375q-0.375 0.234375 -0.78125 0.625q-0.40625 0.390625 -0.859375 0.96875l0 4.1875q0.796875 0.984375 1.5 1.5q0.71875 0.515625 1.5 0.515625q0.734375 0 1.25 -0.34375q0.53125 -0.359375 0.84375 -0.9375q0.328125 -0.59375 0.46875 -1.3125q0.15625 -0.734375 0.15625 -1.484375zm6.890625 5.21875q0 0.09375 -0.046875 0.15625q-0.046875 0.0625 -0.15625 0.125q-0.109375 0.046875 -0.296875 0.0625q-0.1875 0.03125 -0.484375 0.03125q-0.28125 0 -0.46875 -0.03125q-0.1875 -0.015625 -0.296875 -0.0625q-0.109375 -0.0625 -0.15625 -0.125q-0.03125 -0.0625 -0.03125 -0.15625l0 -10.546875q0 -0.078125 0.03125 -0.140625q0.046875 -0.078125 0.15625 -0.125q0.109375 -0.046875 0.296875 -0.0625q0.1875 -0.03125 0.46875 -0.03125q0.296875 0 0.484375 0.03125q0.1875 0.015625 0.296875 0.0625q0.109375 0.046875 0.15625 0.125q0.046875 0.0625 0.046875 0.140625l0 10.546875zm0.21875 -14.109375q0 0.6875 -0.265625 0.9375q-0.25 0.234375 -0.9375 0.234375q-0.6875 0 -0.9375 -0.234375q-0.25 -0.25 -0.25 -0.90625q0 -0.6875 0.25 -0.921875q0.265625 -0.25 0.953125 -0.25q0.6875 0 0.9375 0.234375q0.25 0.234375 0.25 0.90625zm9.5078125 4.25q0 0.265625 -0.015625 0.4375q0 0.171875 -0.046875 0.28125q-0.03125 0.09375 -0.078125 0.15625q-0.046875 0.046875 -0.140625 0.046875q-0.09375 0 -0.234375 -0.046875q-0.140625 -0.0625 -0.3125 -0.109375q-0.15625 -0.0625 -0.375 -0.109375q-0.203125 -0.046875 -0.453125 -0.046875q-0.296875 0 -0.578125 0.125q-0.28125 0.109375 -0.59375 0.390625q-0.3125 0.265625 -0.65625 0.71875q-0.328125 0.4375 -0.734375 1.078125l0 6.9375q0 0.09375 -0.046875 0.15625q-0.046875 0.0625 -0.15625 0.125q-0.109375 0.046875 -0.296875 0.0625q-0.1875 0.03125 -0.484375 0.03125q-0.28125 0 -0.46875 -0.03125q-0.1875 -0.015625 -0.296875 -0.0625q-0.109375 -0.0625 -0.15625 -0.125q-0.03125 -0.0625 -0.03125 -0.15625l0 -10.546875q0 -0.09375 0.03125 -0.15625q0.03125 -0.0625 0.140625 -0.109375q0.109375 -0.0625 0.265625 -0.078125q0.171875 -0.015625 0.4375 -0.015625q0.265625 0 0.421875 0.015625q0.171875 0.015625 0.265625 0.078125q0.09375 0.046875 0.140625 0.109375q0.046875 0.0625 0.046875 0.15625l0 1.53125q0.421875 -0.625 0.796875 -1.015625q0.390625 -0.40625 0.734375 -0.625q0.34375 -0.234375 0.671875 -0.328125q0.328125 -0.09375 0.671875 -0.09375q0.15625 0 0.34375 0.03125q0.203125 0.015625 0.40625 0.0625q0.21875 0.046875 0.375 0.109375q0.171875 0.046875 0.234375 0.109375q0.078125 0.0625 0.09375 0.109375q0.03125 0.046875 0.046875 0.140625q0.03125 0.078125 0.03125 0.234375q0 0.15625 0 0.421875zm4.1484375 9.859375q0 0.09375 -0.046875 0.15625q-0.046875 0.0625 -0.15625 0.125q-0.109375 0.046875 -0.296875 0.0625q-0.1875 0.03125 -0.484375 0.03125q-0.28125 0 -0.46875 -0.03125q-0.1875 -0.015625 -0.296875 -0.0625q-0.109375 -0.0625 -0.15625 -0.125q-0.03125 -0.0625 -0.03125 -0.15625l0 -10.546875q0 -0.078125 0.03125 -0.140625q0.046875 -0.078125 0.15625 -0.125q0.109375 -0.046875 0.296875 -0.0625q0.1875 -0.03125 0.46875 -0.03125q0.296875 0 0.484375 0.03125q0.1875 0.015625 0.296875 0.0625q0.109375 0.046875 0.15625 0.125q0.046875 0.0625 0.046875 0.140625l0 10.546875zm0.21875 -14.109375q0 0.6875 -0.265625 0.9375q-0.25 0.234375 -0.9375 0.234375q-0.6875 0 -0.9375 -0.234375q-0.25 -0.25 -0.25 -0.90625q0 -0.6875 0.25 -0.921875q0.265625 -0.25 0.953125 -0.25q0.6875 0 0.9375 0.234375q0.25 0.234375 0.25 0.90625zm10.9296875 12.5q0 0.203125 -0.015625 0.359375q0 0.140625 -0.03125 0.25q-0.03125 0.09375 -0.078125 0.171875q-0.03125 0.0625 -0.1875 0.21875q-0.140625 0.140625 -0.5 0.359375q-0.34375 0.21875 -0.78125 0.390625q-0.4375 0.171875 -0.953125 0.265625q-0.515625 0.109375 -1.078125 0.109375q-1.125 0 -2.015625 -0.375q-0.875 -0.375 -1.46875 -1.09375q-0.59375 -0.71875 -0.90625 -1.765625q-0.296875 -1.046875 -0.296875 -2.421875q0 -1.5625 0.375 -2.671875q0.375 -1.125 1.03125 -1.84375q0.671875 -0.71875 1.5625 -1.0625q0.90625 -0.34375 1.953125 -0.34375q0.5 0 0.96875 0.09375q0.484375 0.09375 0.875 0.25q0.40625 0.15625 0.703125 0.359375q0.3125 0.1875 0.453125 0.328125q0.140625 0.140625 0.1875 0.234375q0.0625 0.078125 0.09375 0.1875q0.046875 0.109375 0.046875 0.25q0.015625 0.140625 0.015625 0.34375q0 0.46875 -0.109375 0.65625q-0.09375 0.171875 -0.25 0.171875q-0.171875 0 -0.40625 -0.1875q-0.234375 -0.203125 -0.59375 -0.4375q-0.34375 -0.234375 -0.84375 -0.421875q-0.484375 -0.203125 -1.171875 -0.203125q-1.390625 0 -2.140625 1.078125q-0.734375 1.078125 -0.734375 3.109375q0 1.015625 0.1875 1.796875q0.1875 0.765625 0.5625 1.28125q0.375 0.515625 0.921875 0.765625q0.546875 0.25 1.25 0.25q0.671875 0 1.171875 -0.203125q0.5 -0.21875 0.875 -0.46875q0.375 -0.25 0.625 -0.453125q0.25 -0.21875 0.390625 -0.21875q0.078125 0 0.140625 0.046875q0.0625 0.046875 0.09375 0.171875q0.046875 0.109375 0.0625 0.28125q0.015625 0.15625 0.015625 0.390625zm10.5078125 1.625q0 0.140625 -0.09375 0.21875q-0.09375 0.0625 -0.265625 0.09375q-0.15625 0.046875 -0.46875 0.046875q-0.296875 0 -0.484375 -0.046875q-0.1875 -0.03125 -0.265625 -0.09375q-0.078125 -0.078125 -0.078125 -0.21875l0 -1.0625q-0.6875 0.75 -1.546875 1.15625q-0.84375 0.40625 -1.796875 0.40625q-0.828125 0 -1.5 -0.21875q-0.671875 -0.21875 -1.15625 -0.625q-0.46875 -0.40625 -0.734375 -1.0q-0.265625 -0.609375 -0.265625 -1.359375q0 -0.890625 0.359375 -1.546875q0.375 -0.65625 1.046875 -1.09375q0.6875 -0.4375 1.671875 -0.65625q0.984375 -0.21875 2.203125 -0.21875l1.453125 0l0 -0.8125q0 -0.609375 -0.125 -1.078125q-0.125 -0.46875 -0.421875 -0.78125q-0.28125 -0.3125 -0.734375 -0.46875q-0.453125 -0.15625 -1.125 -0.15625q-0.71875 0 -1.296875 0.171875q-0.5625 0.171875 -0.984375 0.375q-0.421875 0.203125 -0.71875 0.375q-0.28125 0.171875 -0.421875 0.171875q-0.09375 0 -0.171875 -0.046875q-0.0625 -0.046875 -0.125 -0.140625q-0.046875 -0.09375 -0.078125 -0.234375q-0.015625 -0.15625 -0.015625 -0.328125q0 -0.296875 0.03125 -0.46875q0.046875 -0.171875 0.203125 -0.3125q0.171875 -0.15625 0.546875 -0.359375q0.390625 -0.21875 0.890625 -0.375q0.515625 -0.171875 1.109375 -0.28125q0.59375 -0.125 1.203125 -0.125q1.140625 0 1.9375 0.265625q0.796875 0.25 1.28125 0.75q0.5 0.5 0.71875 1.25q0.21875 0.734375 0.21875 1.71875l0 7.109375zm-1.921875 -4.8125l-1.640625 0q-0.796875 0 -1.390625 0.140625q-0.578125 0.125 -0.96875 0.390625q-0.390625 0.265625 -0.578125 0.640625q-0.171875 0.359375 -0.171875 0.84375q0 0.8125 0.515625 1.296875q0.53125 0.484375 1.46875 0.484375q0.75 0 1.40625 -0.375q0.65625 -0.390625 1.359375 -1.1875l0 -2.234375zm7.4179688 4.796875q0 0.09375 -0.046875 0.15625q-0.046875 0.0625 -0.15625 0.125q-0.109375 0.046875 -0.296875 0.0625q-0.1875 0.03125 -0.484375 0.03125q-0.28125 0 -0.46875 -0.03125q-0.1875 -0.015625 -0.296875 -0.0625q-0.109375 -0.0625 -0.15625 -0.125q-0.03125 -0.0625 -0.03125 -0.15625l0 -15.65625q0 -0.09375 0.03125 -0.15625q0.046875 -0.078125 0.15625 -0.125q0.109375 -0.046875 0.296875 -0.0625q0.1875 -0.03125 0.46875 -0.03125q0.296875 0 0.484375 0.03125q0.1875 0.015625 0.296875 0.0625q0.109375 0.046875 0.15625 0.125q0.046875 0.0625 0.046875 0.15625l0 15.65625z" fill-rule="nonzero"></path><path fill="#434343" d="m251.40536 93.9611q0 2.09375 -0.546875 3.578125q-0.546875 1.484375 -1.5625 2.421875q-1.015625 0.9375 -2.484375 1.375q-1.453125 0.4375 -3.46875 0.4375l-3.625 0q-0.375 0 -0.640625 -0.21875q-0.265625 -0.234375 -0.265625 -0.75l0 -13.21875q0 -0.515625 0.265625 -0.75q0.265625 -0.234375 0.640625 -0.234375l3.890625 0q2.03125 0 3.4375 0.484375q1.421875 0.46875 2.390625 1.40625q0.96875 0.921875 1.46875 2.296875q0.5 1.375 0.5 3.171875zm-3.1875 0.109375q0 -1.078125 -0.25 -2.0q-0.25 -0.921875 -0.8125 -1.59375q-0.546875 -0.6875 -1.421875 -1.0625q-0.875 -0.390625 -2.296875 -0.390625l-1.5625 0l0 10.3125l1.609375 0q1.265625 0 2.125 -0.328125q0.875 -0.328125 1.453125 -0.984375q0.578125 -0.671875 0.859375 -1.65625q0.296875 -0.984375 0.296875 -2.296875z" fill-rule="nonzero"></path><path fill="#434343" d="m262.01865 101.49235q0 0.140625 -0.09375 0.21875q-0.09375 0.0625 -0.265625 0.09375q-0.15625 0.046875 -0.46875 0.046875q-0.296875 0 -0.484375 -0.046875q-0.1875 -0.03125 -0.265625 -0.09375q-0.078125 -0.078125 -0.078125 -0.21875l0 -1.0625q-0.6875 0.75 -1.546875 1.15625q-0.84375 0.40625 -1.796875 0.40625q-0.828125 0 -1.5 -0.21875q-0.671875 -0.21875 -1.15625 -0.625q-0.46875 -0.40625 -0.734375 -1.0q-0.265625 -0.609375 -0.265625 -1.359375q0 -0.890625 0.359375 -1.546875q0.375 -0.65625 1.046875 -1.09375q0.6875 -0.4375 1.671875 -0.65625q0.984375 -0.21875 2.203125 -0.21875l1.453125 0l0 -0.8125q0 -0.609375 -0.125 -1.078125q-0.125 -0.46875 -0.421875 -0.78125q-0.28125 -0.3125 -0.734375 -0.46875q-0.453125 -0.15625 -1.125 -0.15625q-0.71875 0 -1.296875 0.171875q-0.5625 0.171875 -0.984375 0.375q-0.421875 0.203125 -0.71875 0.375q-0.28125 0.171875 -0.421875 0.171875q-0.09375 0 -0.171875 -0.046875q-0.0625 -0.046875 -0.125 -0.140625q-0.046875 -0.09375 -0.078125 -0.234375q-0.015625 -0.15625 -0.015625 -0.328125q0 -0.296875 0.03125 -0.46875q0.046875 -0.171875 0.203125 -0.3125q0.171875 -0.15625 0.546875 -0.359375q0.390625 -0.21875 0.890625 -0.375q0.515625 -0.171875 1.109375 -0.28125q0.59375 -0.125 1.203125 -0.125q1.140625 0 1.9375 0.265625q0.796875 0.25 1.28125 0.75q0.5 0.5 0.71875 1.25q0.21875 0.734375 0.21875 1.71875l0 7.109375zm-1.921875 -4.8125l-1.640625 0q-0.796875 0 -1.390625 0.140625q-0.578125 0.125 -0.96875 0.390625q-0.390625 0.265625 -0.578125 0.640625q-0.171875 0.359375 -0.171875 0.84375q0 0.8125 0.515625 1.296875q0.53125 0.484375 1.46875 0.484375q0.75 0 1.40625 -0.375q0.65625 -0.390625 1.359375 -1.1875l0 -2.234375zm10.964844 4.03125q0 0.328125 -0.046875 0.53125q-0.046875 0.203125 -0.140625 0.296875q-0.09375 0.09375 -0.28125 0.1875q-0.1875 0.078125 -0.4375 0.125q-0.234375 0.046875 -0.5 0.078125q-0.265625 0.046875 -0.546875 0.046875q-0.8125 0 -1.40625 -0.21875q-0.578125 -0.21875 -0.953125 -0.65625q-0.375 -0.4375 -0.546875 -1.109375q-0.171875 -0.6875 -0.171875 -1.59375l0 -6.171875l-1.46875 0q-0.1875 0 -0.296875 -0.1875q-0.09375 -0.1875 -0.09375 -0.609375q0 -0.21875 0.03125 -0.359375q0.03125 -0.15625 0.078125 -0.25q0.046875 -0.109375 0.109375 -0.140625q0.078125 -0.046875 0.171875 -0.046875l1.46875 0l0 -2.515625q0 -0.078125 0.03125 -0.140625q0.046875 -0.078125 0.15625 -0.125q0.125 -0.0625 0.3125 -0.078125q0.1875 -0.03125 0.46875 -0.03125q0.28125 0 0.46875 0.03125q0.1875 0.015625 0.296875 0.078125q0.109375 0.046875 0.15625 0.125q0.046875 0.0625 0.046875 0.140625l0 2.515625l2.703125 0q0.09375 0 0.15625 0.046875q0.078125 0.03125 0.125 0.140625q0.0625 0.09375 0.078125 0.25q0.03125 0.140625 0.03125 0.359375q0 0.421875 -0.109375 0.609375q-0.109375 0.1875 -0.28125 0.1875l-2.703125 0l0 5.890625q0 1.09375 0.3125 1.65625q0.328125 0.546875 1.15625 0.546875q0.28125 0 0.484375 -0.046875q0.21875 -0.0625 0.375 -0.109375q0.171875 -0.0625 0.28125 -0.109375q0.125 -0.0625 0.21875 -0.0625q0.046875 0 0.09375 0.03125q0.0625 0.03125 0.09375 0.109375q0.03125 0.078125 0.046875 0.21875q0.03125 0.140625 0.03125 0.359375zm10.4921875 0.78125q0 0.140625 -0.09375 0.21875q-0.09375 0.0625 -0.265625 0.09375q-0.15625 0.046875 -0.46875 0.046875q-0.296875 0 -0.484375 -0.046875q-0.1875 -0.03125 -0.265625 -0.09375q-0.078125 -0.078125 -0.078125 -0.21875l0 -1.0625q-0.6875 0.75 -1.546875 1.15625q-0.84375 0.40625 -1.796875 0.40625q-0.828125 0 -1.5 -0.21875q-0.671875 -0.21875 -1.15625 -0.625q-0.46875 -0.40625 -0.734375 -1.0q-0.265625 -0.609375 -0.265625 -1.359375q0 -0.890625 0.359375 -1.546875q0.375 -0.65625 1.046875 -1.09375q0.6875 -0.4375 1.671875 -0.65625q0.984375 -0.21875 2.203125 -0.21875l1.453125 0l0 -0.8125q0 -0.609375 -0.125 -1.078125q-0.125 -0.46875 -0.421875 -0.78125q-0.28125 -0.3125 -0.734375 -0.46875q-0.453125 -0.15625 -1.125 -0.15625q-0.71875 0 -1.296875 0.171875q-0.5625 0.171875 -0.984375 0.375q-0.421875 0.203125 -0.71875 0.375q-0.28125 0.171875 -0.421875 0.171875q-0.09375 0 -0.171875 -0.046875q-0.0625 -0.046875 -0.125 -0.140625q-0.046875 -0.09375 -0.078125 -0.234375q-0.015625 -0.15625 -0.015625 -0.328125q0 -0.296875 0.03125 -0.46875q0.046875 -0.171875 0.203125 -0.3125q0.171875 -0.15625 0.546875 -0.359375q0.390625 -0.21875 0.890625 -0.375q0.515625 -0.171875 1.109375 -0.28125q0.59375 -0.125 1.203125 -0.125q1.140625 0 1.9375 0.265625q0.796875 0.25 1.28125 0.75q0.5 0.5 0.71875 1.25q0.21875 0.734375 0.21875 1.71875l0 7.109375zm-1.921875 -4.8125l-1.640625 0q-0.796875 0 -1.390625 0.140625q-0.578125 0.125 -0.96875 0.390625q-0.390625 0.265625 -0.578125 0.640625q-0.171875 0.359375 -0.171875 0.84375q0 0.8125 0.515625 1.296875q0.53125 0.484375 1.46875 0.484375q0.75 0 1.40625 -0.375q0.65625 -0.390625 1.359375 -1.1875l0 -2.234375z" fill-rule="nonzero"></path><path fill="#434343" d="m299.38193 97.22672q0 1.1875 -0.453125 2.09375q-0.4375 0.90625 -1.203125 1.515625q-0.75 0.59375 -1.78125 0.90625q-1.015625 0.296875 -2.171875 0.296875q-0.78125 0 -1.46875 -0.125q-0.671875 -0.125 -1.1875 -0.3125q-0.515625 -0.1875 -0.859375 -0.375q-0.34375 -0.203125 -0.5 -0.359375q-0.140625 -0.15625 -0.21875 -0.4375q-0.0625 -0.28125 -0.0625 -0.828125q0 -0.359375 0.015625 -0.609375q0.03125 -0.25 0.078125 -0.390625q0.0625 -0.15625 0.140625 -0.21875q0.09375 -0.0625 0.21875 -0.0625q0.15625 0 0.453125 0.1875q0.3125 0.1875 0.78125 0.421875q0.46875 0.234375 1.109375 0.4375q0.65625 0.1875 1.515625 0.1875q0.5625 0 1.0 -0.125q0.453125 -0.140625 0.75 -0.390625q0.3125 -0.25 0.46875 -0.609375q0.171875 -0.359375 0.171875 -0.8125q0 -0.515625 -0.28125 -0.875q-0.28125 -0.375 -0.734375 -0.65625q-0.4375 -0.296875 -1.015625 -0.546875q-0.578125 -0.25 -1.1875 -0.53125q-0.609375 -0.28125 -1.1875 -0.640625q-0.5625 -0.359375 -1.015625 -0.84375q-0.453125 -0.5 -0.734375 -1.171875q-0.28125 -0.6875 -0.28125 -1.640625q0 -1.09375 0.40625 -1.921875q0.40625 -0.828125 1.078125 -1.359375q0.6875 -0.546875 1.625 -0.8125q0.9375 -0.28125 1.96875 -0.28125q0.546875 0 1.078125 0.09375q0.546875 0.078125 1.015625 0.21875q0.46875 0.140625 0.828125 0.3125q0.359375 0.171875 0.46875 0.296875q0.125 0.109375 0.171875 0.203125q0.046875 0.078125 0.0625 0.21875q0.03125 0.125 0.046875 0.328125q0.015625 0.203125 0.015625 0.515625q0 0.328125 -0.015625 0.5625q-0.015625 0.234375 -0.0625 0.390625q-0.046875 0.15625 -0.125 0.234375q-0.0625 0.0625 -0.203125 0.0625q-0.125 0 -0.40625 -0.15625q-0.28125 -0.171875 -0.6875 -0.359375q-0.40625 -0.203125 -0.953125 -0.359375q-0.53125 -0.15625 -1.1875 -0.15625q-0.5 0 -0.875 0.125q-0.375 0.125 -0.625 0.34375q-0.25 0.203125 -0.375 0.515625q-0.125 0.296875 -0.125 0.640625q0 0.5 0.265625 0.875q0.28125 0.375 0.75 0.65625q0.46875 0.28125 1.046875 0.546875q0.59375 0.25 1.203125 0.53125q0.609375 0.28125 1.1875 0.640625q0.59375 0.34375 1.046875 0.84375q0.453125 0.5 0.734375 1.171875q0.28125 0.671875 0.28125 1.59375z" fill-rule="nonzero"></path><path fill="#434343" d="m309.46005 99.86735q0 0.203125 -0.015625 0.359375q0 0.140625 -0.03125 0.25q-0.03125 0.09375 -0.078125 0.171875q-0.03125 0.0625 -0.1875 0.21875q-0.140625 0.140625 -0.5 0.359375q-0.34375 0.21875 -0.78125 0.390625q-0.4375 0.171875 -0.953125 0.265625q-0.515625 0.109375 -1.078125 0.109375q-1.125 0 -2.015625 -0.375q-0.875 -0.375 -1.46875 -1.09375q-0.59375 -0.71875 -0.90625 -1.765625q-0.296875 -1.046875 -0.296875 -2.421875q0 -1.5625 0.375 -2.671875q0.375 -1.125 1.03125 -1.84375q0.671875 -0.71875 1.5625 -1.0625q0.90625 -0.34375 1.953125 -0.34375q0.5 0 0.96875 0.09375q0.484375 0.09375 0.875 0.25q0.40625 0.15625 0.703125 0.359375q0.3125 0.1875 0.453125 0.328125q0.140625 0.140625 0.1875 0.234375q0.0625 0.078125 0.09375 0.1875q0.046875 0.109375 0.046875 0.25q0.015625 0.140625 0.015625 0.34375q0 0.46875 -0.109375 0.65625q-0.09375 0.171875 -0.25 0.171875q-0.171875 0 -0.40625 -0.1875q-0.234375 -0.203125 -0.59375 -0.4375q-0.34375 -0.234375 -0.84375 -0.421875q-0.484375 -0.203125 -1.171875 -0.203125q-1.390625 0 -2.140625 1.078125q-0.734375 1.078125 -0.734375 3.109375q0 1.015625 0.1875 1.796875q0.1875 0.765625 0.5625 1.28125q0.375 0.515625 0.921875 0.765625q0.546875 0.25 1.25 0.25q0.671875 0 1.171875 -0.203125q0.5 -0.21875 0.875 -0.46875q0.375 -0.25 0.625 -0.453125q0.25 -0.21875 0.390625 -0.21875q0.078125 0 0.140625 0.046875q0.0625 0.046875 0.09375 0.171875q0.046875 0.109375 0.0625 0.28125q0.015625 0.15625 0.015625 0.390625zm4.5078125 1.609375q0 0.09375 -0.046875 0.15625q-0.046875 0.0625 -0.15625 0.125q-0.109375 0.046875 -0.296875 0.0625q-0.1875 0.03125 -0.484375 0.03125q-0.28125 0 -0.46875 -0.03125q-0.1875 -0.015625 -0.296875 -0.0625q-0.109375 -0.0625 -0.15625 -0.125q-0.03125 -0.0625 -0.03125 -0.15625l0 -10.546875q0 -0.078125 0.03125 -0.140625q0.046875 -0.078125 0.15625 -0.125q0.109375 -0.046875 0.296875 -0.0625q0.1875 -0.03125 0.46875 -0.03125q0.296875 0 0.484375 0.03125q0.1875 0.015625 0.296875 0.0625q0.109375 0.046875 0.15625 0.125q0.046875 0.0625 0.046875 0.140625l0 10.546875zm0.21875 -14.109375q0 0.6875 -0.265625 0.9375q-0.25 0.234375 -0.9375 0.234375q-0.6875 0 -0.9375 -0.234375q-0.25 -0.25 -0.25 -0.90625q0 -0.6875 0.25 -0.921875q0.265625 -0.25 0.953125 -0.25q0.6875 0 0.9375 0.234375q0.25 0.234375 0.25 0.90625zm12.3515625 8.375q0 0.46875 -0.234375 0.65625q-0.21875 0.1875 -0.515625 0.1875l-6.921875 0q0 0.890625 0.171875 1.59375q0.1875 0.703125 0.59375 1.203125q0.40625 0.5 1.0625 0.78125q0.65625 0.265625 1.609375 0.265625q0.75 0 1.328125 -0.125q0.59375 -0.125 1.015625 -0.28125q0.4375 -0.15625 0.703125 -0.265625q0.28125 -0.125 0.421875 -0.125q0.078125 0 0.140625 0.046875q0.078125 0.03125 0.109375 0.109375q0.03125 0.078125 0.046875 0.234375q0.015625 0.140625 0.015625 0.359375q0 0.140625 -0.015625 0.265625q0 0.109375 -0.015625 0.203125q-0.015625 0.078125 -0.0625 0.15625q-0.046875 0.0625 -0.109375 0.125q-0.0625 0.0625 -0.375 0.21875q-0.3125 0.140625 -0.828125 0.28125q-0.5 0.140625 -1.171875 0.25q-0.65625 0.109375 -1.40625 0.109375q-1.296875 0 -2.28125 -0.359375q-0.96875 -0.359375 -1.640625 -1.078125q-0.671875 -0.71875 -1.015625 -1.796875q-0.328125 -1.078125 -0.328125 -2.5q0 -1.359375 0.34375 -2.4375q0.359375 -1.09375 1.015625 -1.84375q0.671875 -0.765625 1.609375 -1.171875q0.9375 -0.40625 2.09375 -0.40625q1.234375 0 2.109375 0.40625q0.875 0.390625 1.4375 1.078125q0.5625 0.671875 0.828125 1.578125q0.265625 0.90625 0.265625 1.9375l0 0.34375zm-1.953125 -0.5625q0.046875 -1.53125 -0.671875 -2.390625q-0.703125 -0.875 -2.09375 -0.875q-0.71875 0 -1.265625 0.28125q-0.53125 0.265625 -0.90625 0.71875q-0.359375 0.4375 -0.5625 1.03125q-0.1875 0.578125 -0.21875 1.234375l5.71875 0zm13.972656 6.296875q0 0.09375 -0.046875 0.15625q-0.046875 0.0625 -0.15625 0.125q-0.09375 0.046875 -0.28125 0.0625q-0.1875 0.03125 -0.46875 0.03125q-0.296875 0 -0.484375 -0.03125q-0.1875 -0.015625 -0.296875 -0.0625q-0.109375 -0.0625 -0.15625 -0.125q-0.046875 -0.0625 -0.046875 -0.15625l0 -6.171875q0 -0.90625 -0.140625 -1.453125q-0.140625 -0.546875 -0.40625 -0.9375q-0.265625 -0.40625 -0.703125 -0.609375q-0.421875 -0.21875 -0.984375 -0.21875q-0.71875 0 -1.453125 0.515625q-0.71875 0.515625 -1.515625 1.5l0 7.375q0 0.09375 -0.046875 0.15625q-0.046875 0.0625 -0.15625 0.125q-0.109375 0.046875 -0.296875 0.0625q-0.1875 0.03125 -0.484375 0.03125q-0.28125 0 -0.46875 -0.03125q-0.1875 -0.015625 -0.296875 -0.0625q-0.109375 -0.0625 -0.15625 -0.125q-0.03125 -0.0625 -0.03125 -0.15625l0 -10.546875q0 -0.09375 0.03125 -0.15625q0.03125 -0.0625 0.140625 -0.109375q0.109375 -0.0625 0.265625 -0.078125q0.171875 -0.015625 0.4375 -0.015625q0.265625 0 0.421875 0.015625q0.171875 0.015625 0.265625 0.078125q0.09375 0.046875 0.140625 0.109375q0.046875 0.0625 0.046875 0.15625l0 1.390625q0.890625 -0.984375 1.765625 -1.453125q0.890625 -0.46875 1.796875 -0.46875q1.046875 0 1.765625 0.359375q0.71875 0.359375 1.15625 0.96875q0.453125 0.59375 0.640625 1.390625q0.203125 0.796875 0.203125 1.921875l0 6.4375zm11.109375 -1.609375q0 0.203125 -0.015625 0.359375q0 0.140625 -0.03125 0.25q-0.03125 0.09375 -0.078125 0.171875q-0.03125 0.0625 -0.1875 0.21875q-0.140625 0.140625 -0.5 0.359375q-0.34375 0.21875 -0.78125 0.390625q-0.4375 0.171875 -0.953125 0.265625q-0.515625 0.109375 -1.078125 0.109375q-1.125 0 -2.015625 -0.375q-0.875 -0.375 -1.46875 -1.09375q-0.59375 -0.71875 -0.90625 -1.765625q-0.296875 -1.046875 -0.296875 -2.421875q0 -1.5625 0.375 -2.671875q0.375 -1.125 1.03125 -1.84375q0.671875 -0.71875 1.5625 -1.0625q0.90625 -0.34375 1.953125 -0.34375q0.5 0 0.96875 0.09375q0.484375 0.09375 0.875 0.25q0.40625 0.15625 0.703125 0.359375q0.3125 0.1875 0.453125 0.328125q0.140625 0.140625 0.1875 0.234375q0.0625 0.078125 0.09375 0.1875q0.046875 0.109375 0.046875 0.25q0.015625 0.140625 0.015625 0.34375q0 0.46875 -0.109375 0.65625q-0.09375 0.171875 -0.25 0.171875q-0.171875 0 -0.40625 -0.1875q-0.234375 -0.203125 -0.59375 -0.4375q-0.34375 -0.234375 -0.84375 -0.421875q-0.484375 -0.203125 -1.171875 -0.203125q-1.390625 0 -2.140625 1.078125q-0.734375 1.078125 -0.734375 3.109375q0 1.015625 0.1875 1.796875q0.1875 0.765625 0.5625 1.28125q0.375 0.515625 0.921875 0.765625q0.546875 0.25 1.25 0.25q0.671875 0 1.171875 -0.203125q0.5 -0.21875 0.875 -0.46875q0.375 -0.25 0.625 -0.453125q0.25 -0.21875 0.390625 -0.21875q0.078125 0 0.140625 0.046875q0.0625 0.046875 0.09375 0.171875q0.046875 0.109375 0.0625 0.28125q0.015625 0.15625 0.015625 0.390625zm11.5703125 -4.125q0 0.46875 -0.234375 0.65625q-0.21875 0.1875 -0.515625 0.1875l-6.921875 0q0 0.890625 0.171875 1.59375q0.1875 0.703125 0.59375 1.203125q0.40625 0.5 1.0625 0.78125q0.65625 0.265625 1.609375 0.265625q0.75 0 1.328125 -0.125q0.59375 -0.125 1.015625 -0.28125q0.4375 -0.15625 0.703125 -0.265625q0.28125 -0.125 0.421875 -0.125q0.078125 0 0.140625 0.046875q0.078125 0.03125 0.109375 0.109375q0.03125 0.078125 0.046875 0.234375q0.015625 0.140625 0.015625 0.359375q0 0.140625 -0.015625 0.265625q0 0.109375 -0.015625 0.203125q-0.015625 0.078125 -0.0625 0.15625q-0.046875 0.0625 -0.109375 0.125q-0.0625 0.0625 -0.375 0.21875q-0.3125 0.140625 -0.828125 0.28125q-0.5 0.140625 -1.171875 0.25q-0.65625 0.109375 -1.40625 0.109375q-1.296875 0 -2.28125 -0.359375q-0.96875 -0.359375 -1.640625 -1.078125q-0.671875 -0.71875 -1.015625 -1.796875q-0.328125 -1.078125 -0.328125 -2.5q0 -1.359375 0.34375 -2.4375q0.359375 -1.09375 1.015625 -1.84375q0.671875 -0.765625 1.609375 -1.171875q0.9375 -0.40625 2.09375 -0.40625q1.234375 0 2.109375 0.40625q0.875 0.390625 1.4375 1.078125q0.5625 0.671875 0.828125 1.578125q0.265625 0.90625 0.265625 1.9375l0 0.34375zm-1.953125 -0.5625q0.046875 -1.53125 -0.671875 -2.390625q-0.703125 -0.875 -2.09375 -0.875q-0.71875 0 -1.265625 0.28125q-0.53125 0.265625 -0.90625 0.71875q-0.359375 0.4375 -0.5625 1.03125q-0.1875 0.578125 -0.21875 1.234375l5.71875 0z" fill-rule="nonzero"></path><path fill="#434343" d="m14.260827 129.89859q0 0.234375 -0.03125 0.390625q-0.015625 0.15625 -0.0625 0.265625q-0.046875 0.109375 -0.125 0.171875q-0.078125 0.046875 -0.1875 0.046875l-6.7031255 0q-0.265625 0 -0.515625 -0.171875q-0.234375 -0.1875 -0.234375 -0.65625l0 -14.031242q0 -0.09375 0.046875 -0.15625q0.046875 -0.078125 0.15625 -0.109375q0.125 -0.046875 0.328125 -0.078125q0.203125 -0.03125 0.484375 -0.03125q0.28125 0 0.46875 0.03125q0.20312548 0.03125 0.31250048 0.078125q0.125 0.03125 0.171875 0.109375q0.046875 0.0625 0.046875 0.15625l0 13.109367l5.4375 0q0.109375 0 0.1875 0.0625q0.078125 0.046875 0.125 0.15625q0.046875 0.09375 0.0625 0.265625q0.03125 0.15625 0.03125 0.390625zm9.949218 0.59375q0 0.140625 -0.09375 0.21875q-0.09375 0.0625 -0.265625 0.09375q-0.15625 0.046875 -0.46875 0.046875q-0.296875 0 -0.484375 -0.046875q-0.1875 -0.03125 -0.265625 -0.09375q-0.078125 -0.078125 -0.078125 -0.21875l0 -1.0625q-0.6875 0.75 -1.546875 1.15625q-0.84375 0.40625 -1.796875 0.40625q-0.828125 0 -1.5 -0.21875q-0.671875 -0.21875 -1.15625 -0.625q-0.46875 -0.40625 -0.73437405 -1.0q-0.265625 -0.609375 -0.265625 -1.3593674q0 -0.890625 0.359375 -1.546875q0.37499905 -0.65625 1.046874 -1.09375q0.6875 -0.4375 1.671875 -0.65625q0.984375 -0.21875 2.203125 -0.21875l1.453125 0l0 -0.8125q0 -0.609375 -0.125 -1.078125q-0.125 -0.46875 -0.421875 -0.78125q-0.28125 -0.3125 -0.734375 -0.46875q-0.453125 -0.15625 -1.125 -0.15625q-0.71875 0 -1.296875 0.171875q-0.5625 0.171875 -0.984375 0.375q-0.421875 0.203125 -0.71875 0.375q-0.28125 0.171875 -0.421875 0.171875q-0.09375 0 -0.171875 -0.046875q-0.0625 -0.046875 -0.125 -0.140625q-0.046875 -0.09375 -0.078125 -0.234375q-0.015625 -0.15625 -0.015625 -0.328125q0 -0.296875 0.03125 -0.46875q0.046875 -0.171875 0.203125 -0.3125q0.171875 -0.15625 0.546875 -0.359375q0.390625 -0.21875 0.890625 -0.375q0.515625 -0.171875 1.109375 -0.28125q0.59375 -0.125 1.203125 -0.125q1.140625 0 1.9375 0.265625q0.796875 0.25 1.28125 0.75q0.5 0.5 0.71875 1.25q0.21875 0.734375 0.21875 1.71875l0 7.1093674zm-1.921875 -4.8124924l-1.640625 0q-0.796875 0 -1.390625 0.140625q-0.578125 0.125 -0.96875 0.390625q-0.390625 0.265625 -0.578125 0.640625q-0.171875 0.359375 -0.171875 0.84375q0 0.8124924 0.515625 1.2968674q0.53125 0.484375 1.46875 0.484375q0.75 0 1.40625 -0.375q0.65625 -0.390625 1.359375 -1.1874924l0 -2.234375zm15.183594 -0.609375q0 1.359375 -0.296875 2.46875q-0.296875 1.0937424 -0.890625 1.8749924q-0.578125 0.765625 -1.421875 1.171875q-0.84375 0.40625 -1.921875 0.40625q-0.515625 0 -0.9375 -0.09375q-0.421875 -0.09375 -0.84375 -0.3125q-0.40625 -0.234375 -0.8125 -0.578125q-0.40625 -0.34375 -0.875 -0.8125l0 1.28125q0 0.09375 -0.046875 0.171875q-0.046875 0.0625 -0.15625 0.109375q-0.09375 0.046875 -0.25 0.0625q-0.15625 0.03125 -0.40625 0.03125q-0.234375 0 -0.40625 -0.03125q-0.15625 -0.015625 -0.265625 -0.0625q-0.109375 -0.046875 -0.140625 -0.109375q-0.03125 -0.078125 -0.03125 -0.171875l0 -15.656242q0 -0.09375 0.03125 -0.15625q0.046875 -0.078125 0.15625 -0.125q0.109375 -0.046875 0.296875 -0.0625q0.1875 -0.03125 0.46875 -0.03125q0.296875 0 0.484375 0.03125q0.1875 0.015625 0.296875 0.0625q0.109375 0.046875 0.15625 0.125q0.046875 0.0625 0.046875 0.15625l0 6.3125q0.46875 -0.46875 0.90625 -0.796875q0.4375 -0.328125 0.859375 -0.53125q0.421875 -0.21875 0.84375 -0.3125q0.421875 -0.09375 0.890625 -0.09375q1.140625 0 1.953125 0.46875q0.828125 0.453125 1.328125 1.21875q0.515625 0.765625 0.75 1.796875q0.234375 1.03125 0.234375 2.1875zm-2.046875 0.21875q0 -0.8125 -0.125 -1.5625q-0.109375 -0.765625 -0.421875 -1.34375q-0.296875 -0.59375 -0.8125 -0.953125q-0.5 -0.359375 -1.25 -0.359375q-0.375 0 -0.734375 0.109375q-0.359375 0.09375 -0.734375 0.34375q-0.375 0.25 -0.78125 0.640625q-0.40625 0.375 -0.859375 0.96875l0 4.203125q0.796875 0.9687424 1.515625 1.4843674q0.734375 0.515625 1.515625 0.515625q0.71875 0 1.234375 -0.34375q0.515625 -0.359375 0.84375 -0.9375q0.328125 -0.5937424 0.46875 -1.3124924q0.140625 -0.71875 0.140625 -1.453125zm14.765625 -0.203125q0 1.296875 -0.34375 2.375q-0.34375 1.0781174 -1.015625 1.8749924q-0.671875 0.78125 -1.6875 1.21875q-1.015625 0.4375 -2.34375 0.4375q-1.3125 0 -2.28125 -0.375q-0.953125 -0.390625 -1.609375 -1.125q-0.640625 -0.75 -0.953125 -1.7968674q-0.3125 -1.0625 -0.3125 -2.390625q0 -1.296875 0.328125 -2.375q0.328125 -1.09375 1.0 -1.875q0.6875 -0.78125 1.6875 -1.21875q1.015625 -0.4375 2.359375 -0.4375q1.296875 0 2.265625 0.390625q0.96875 0.390625 1.609375 1.125q0.640625 0.734375 0.96875 1.796875q0.328125 1.046875 0.328125 2.375zm-2.046875 0.125q0 -0.84375 -0.15625 -1.609375q-0.15625 -0.765625 -0.53125 -1.328125q-0.359375 -0.578125 -0.984375 -0.90625q-0.609375 -0.34375 -1.53125 -0.34375q-0.859375 0 -1.484375 0.3125q-0.609375 0.296875 -1.015625 0.859375q-0.390625 0.546875 -0.59375 1.3125q-0.1875 0.765625 -0.1875 1.65625q0 0.875 0.15625 1.640625q0.171875 0.75 0.53125 1.3281174q0.375 0.5625 0.984375 0.90625q0.625 0.328125 1.5625 0.328125q0.84375 0 1.453125 -0.296875q0.625 -0.3125 1.015625 -0.859375q0.40625 -0.5624924 0.59375 -1.3124924q0.1875 -0.765625 0.1875 -1.6875zm11.046875 -4.59375q0 0.265625 -0.015625 0.4375q0 0.171875 -0.046875 0.28125q-0.03125 0.09375 -0.078125 0.15625q-0.046875 0.046875 -0.140625 0.046875q-0.09375 0 -0.234375 -0.046875q-0.140625 -0.0625 -0.3125 -0.109375q-0.15625 -0.0625 -0.375 -0.109375q-0.203125 -0.046875 -0.453125 -0.046875q-0.296875 0 -0.578125 0.125q-0.28125 0.109375 -0.59375 0.390625q-0.3125 0.265625 -0.65625 0.71875q-0.328125 0.4375 -0.734375 1.078125l0 6.9374924q0 0.09375 -0.046875 0.15625q-0.046875 0.0625 -0.15625 0.125q-0.109375 0.046875 -0.296875 0.0625q-0.1875 0.03125 -0.484375 0.03125q-0.28125 0 -0.46875 -0.03125q-0.1875 -0.015625 -0.296875 -0.0625q-0.109375 -0.0625 -0.15625 -0.125q-0.03125 -0.0625 -0.03125 -0.15625l0 -10.546867q0 -0.09375 0.03125 -0.15625q0.03125 -0.0625 0.140625 -0.109375q0.109375 -0.0625 0.265625 -0.078125q0.171875 -0.015625 0.4375 -0.015625q0.265625 0 0.421875 0.015625q0.171875 0.015625 0.265625 0.078125q0.09375 0.046875 0.140625 0.109375q0.046875 0.0625 0.046875 0.15625l0 1.53125q0.421875 -0.625 0.796875 -1.015625q0.390625 -0.40625 0.734375 -0.625q0.34375 -0.234375 0.671875 -0.328125q0.328125 -0.09375 0.671875 -0.09375q0.15625 0 0.34375 0.03125q0.203125 0.015625 0.40625 0.0625q0.21875 0.046875 0.375 0.109375q0.171875 0.046875 0.234375 0.109375q0.078125 0.0625 0.09375 0.109375q0.03125 0.046875 0.046875 0.140625q0.03125 0.078125 0.03125 0.234375q0 0.15625 0 0.421875zm10.1484375 9.874992q0 0.140625 -0.09375 0.21875q-0.09375 0.0625 -0.265625 0.09375q-0.15625 0.046875 -0.46875 0.046875q-0.296875 0 -0.484375 -0.046875q-0.1875 -0.03125 -0.265625 -0.09375q-0.078125 -0.078125 -0.078125 -0.21875l0 -1.0625q-0.6875 0.75 -1.546875 1.15625q-0.84375 0.40625 -1.796875 0.40625q-0.828125 0 -1.5 -0.21875q-0.671875 -0.21875 -1.15625 -0.625q-0.46875 -0.40625 -0.734375 -1.0q-0.265625 -0.609375 -0.265625 -1.3593674q0 -0.890625 0.359375 -1.546875q0.375 -0.65625 1.046875 -1.09375q0.6875 -0.4375 1.671875 -0.65625q0.984375 -0.21875 2.203125 -0.21875l1.453125 0l0 -0.8125q0 -0.609375 -0.125 -1.078125q-0.125 -0.46875 -0.421875 -0.78125q-0.28125 -0.3125 -0.734375 -0.46875q-0.453125 -0.15625 -1.125 -0.15625q-0.71875 0 -1.296875 0.171875q-0.5625 0.171875 -0.984375 0.375q-0.421875 0.203125 -0.71875 0.375q-0.28125 0.171875 -0.421875 0.171875q-0.09375 0 -0.171875 -0.046875q-0.0625 -0.046875 -0.125 -0.140625q-0.046875 -0.09375 -0.078125 -0.234375q-0.015625 -0.15625 -0.015625 -0.328125q0 -0.296875 0.03125 -0.46875q0.046875 -0.171875 0.203125 -0.3125q0.171875 -0.15625 0.546875 -0.359375q0.390625 -0.21875 0.890625 -0.375q0.515625 -0.171875 1.109375 -0.28125q0.59375 -0.125 1.203125 -0.125q1.140625 0 1.9375 0.265625q0.796875 0.25 1.28125 0.75q0.5 0.5 0.71875 1.25q0.21875 0.734375 0.21875 1.71875l0 7.1093674zm-1.921875 -4.8124924l-1.640625 0q-0.796875 0 -1.390625 0.140625q-0.578125 0.125 -0.96875 0.390625q-0.390625 0.265625 -0.578125 0.640625q-0.171875 0.359375 -0.171875 0.84375q0 0.8124924 0.515625 1.2968674q0.53125 0.484375 1.46875 0.484375q0.75 0 1.40625 -0.375q0.65625 -0.390625 1.359375 -1.1874924l0 -2.234375zm10.964844 4.0312424q0 0.328125 -0.046875 0.53125q-0.046875 0.203125 -0.140625 0.296875q-0.09375 0.09375 -0.28125 0.1875q-0.1875 0.078125 -0.4375 0.125q-0.234375 0.046875 -0.5 0.078125q-0.265625 0.046875 -0.546875 0.046875q-0.8125 0 -1.40625 -0.21875q-0.578125 -0.21875 -0.953125 -0.65625q-0.375 -0.4375 -0.546875 -1.109375q-0.171875 -0.6875 -0.171875 -1.5937424l0 -6.171875l-1.46875 0q-0.1875 0 -0.296875 -0.1875q-0.09375 -0.1875 -0.09375 -0.609375q0 -0.21875 0.03125 -0.359375q0.03125 -0.15625 0.078125 -0.25q0.046875 -0.109375 0.109375 -0.140625q0.078125 -0.046875 0.171875 -0.046875l1.46875 0l0 -2.515625q0 -0.078125 0.03125 -0.140625q0.046875 -0.078125 0.15625 -0.125q0.125 -0.0625 0.3125 -0.078125q0.1875 -0.03125 0.46875 -0.03125q0.28125 0 0.46875 0.03125q0.1875 0.015625 0.296875 0.078125q0.109375 0.046875 0.15625 0.125q0.046875 0.0625 0.046875 0.140625l0 2.515625l2.703125 0q0.09375 0 0.15625 0.046875q0.078125 0.03125 0.125 0.140625q0.0625 0.09375 0.078125 0.25q0.03125 0.140625 0.03125 0.359375q0 0.421875 -0.109375 0.609375q-0.109375 0.1875 -0.28125 0.1875l-2.703125 0l0 5.890625q0 1.0937424 0.3125 1.6562424q0.328125 0.546875 1.15625 0.546875q0.28125 0 0.484375 -0.046875q0.21875 -0.0625 0.375 -0.109375q0.171875 -0.0625 0.28125 -0.109375q0.125 -0.0625 0.21875 -0.0625q0.046875 0 0.09375 0.03125q0.0625 0.03125 0.09375 0.109375q0.03125 0.078125 0.046875 0.21875q0.03125 0.140625 0.03125 0.359375zm12.3671875 -4.6249924q0 1.296875 -0.34375 2.375q-0.34375 1.0781174 -1.015625 1.8749924q-0.671875 0.78125 -1.6875 1.21875q-1.015625 0.4375 -2.34375 0.4375q-1.3125 0 -2.28125 -0.375q-0.953125 -0.390625 -1.609375 -1.125q-0.640625 -0.75 -0.953125 -1.7968674q-0.3125 -1.0625 -0.3125 -2.390625q0 -1.296875 0.328125 -2.375q0.328125 -1.09375 1.0 -1.875q0.6875 -0.78125 1.6875 -1.21875q1.015625 -0.4375 2.359375 -0.4375q1.296875 0 2.265625 0.390625q0.96875 0.390625 1.609375 1.125q0.640625 0.734375 0.96875 1.796875q0.328125 1.046875 0.328125 2.375zm-2.046875 0.125q0 -0.84375 -0.15625 -1.609375q-0.15625 -0.765625 -0.53125 -1.328125q-0.359375 -0.578125 -0.984375 -0.90625q-0.609375 -0.34375 -1.53125 -0.34375q-0.859375 0 -1.484375 0.3125q-0.609375 0.296875 -1.015625 0.859375q-0.390625 0.546875 -0.59375 1.3125q-0.1875 0.765625 -0.1875 1.65625q0 0.875 0.15625 1.640625q0.171875 0.75 0.53125 1.3281174q0.375 0.5625 0.984375 0.90625q0.625 0.328125 1.5625 0.328125q0.84375 0 1.453125 -0.296875q0.625 -0.3125 1.015625 -0.859375q0.40625 -0.5624924 0.59375 -1.3124924q0.1875 -0.765625 0.1875 -1.6875zm11.046875 -4.59375q0 0.265625 -0.015625 0.4375q0 0.171875 -0.046875 0.28125q-0.03125 0.09375 -0.078125 0.15625q-0.046875 0.046875 -0.140625 0.046875q-0.09375 0 -0.234375 -0.046875q-0.140625 -0.0625 -0.3125 -0.109375q-0.15625 -0.0625 -0.375 -0.109375q-0.203125 -0.046875 -0.453125 -0.046875q-0.296875 0 -0.578125 0.125q-0.28125 0.109375 -0.59375 0.390625q-0.3125 0.265625 -0.65625 0.71875q-0.328125 0.4375 -0.734375 1.078125l0 6.9374924q0 0.09375 -0.046875 0.15625q-0.046875 0.0625 -0.15625 0.125q-0.109375 0.046875 -0.296875 0.0625q-0.1875 0.03125 -0.484375 0.03125q-0.28125 0 -0.46875 -0.03125q-0.1875 -0.015625 -0.296875 -0.0625q-0.109375 -0.0625 -0.15625 -0.125q-0.03125 -0.0625 -0.03125 -0.15625l0 -10.546867q0 -0.09375 0.03125 -0.15625q0.03125 -0.0625 0.140625 -0.109375q0.109375 -0.0625 0.265625 -0.078125q0.171875 -0.015625 0.4375 -0.015625q0.265625 0 0.421875 0.015625q0.171875 0.015625 0.265625 0.078125q0.09375 0.046875 0.140625 0.109375q0.046875 0.0625 0.046875 0.15625l0 1.53125q0.421875 -0.625 0.796875 -1.015625q0.390625 -0.40625 0.734375 -0.625q0.34375 -0.234375 0.671875 -0.328125q0.328125 -0.09375 0.671875 -0.09375q0.15625 0 0.34375 0.03125q0.203125 0.015625 0.40625 0.0625q0.21875 0.046875 0.375 0.109375q0.171875 0.046875 0.234375 0.109375q0.078125 0.0625 0.09375 0.109375q0.03125 0.046875 0.046875 0.140625q0.03125 0.078125 0.03125 0.234375q0 0.15625 0 0.421875zm7.0078125 10.156242l-1.40625 3.875q-0.0625 0.1875 -0.359375 0.28125q-0.28125 0.109375 -0.859375 0.109375q-0.3125 0 -0.5 -0.03125q-0.1875 -0.03125 -0.296875 -0.109375q-0.09375 -0.0625 -0.109375 -0.1875q0 -0.109375 0.0625 -0.265625l1.453125 -3.671875q-0.09375 -0.046875 -0.1875 -0.15625q-0.09375 -0.109375 -0.140625 -0.21875l-3.75 -10.078117q-0.09375 -0.25 -0.09375 -0.390625q0 -0.140625 0.09375 -0.21875q0.09375 -0.078125 0.296875 -0.109375q0.21875 -0.03125 0.5625 -0.03125q0.359375 0 0.546875 0.015625q0.203125 0.015625 0.3125 0.0625q0.125 0.046875 0.171875 0.140625q0.0625 0.078125 0.125 0.234375l3.0 8.468742l0.046875 0l2.90625 -8.515617q0.0625 -0.21875 0.15625 -0.28125q0.109375 -0.0625 0.296875 -0.09375q0.203125 -0.03125 0.578125 -0.03125q0.328125 0 0.53125 0.03125q0.21875 0.03125 0.3125 0.109375q0.109375 0.078125 0.109375 0.21875q0 0.140625 -0.0625 0.359375l-3.796875 10.484367z" fill-rule="nonzero"></path><path fill="#000000" d="m12.417509 13.93962l-0.28496647 19.899796l2.6846895 0c0.36995697 -2.9111176 0.8599005 -5.188448 1.4698296 -6.831995c0.60993004 -1.6542892 1.4998264 -3.2065258 2.669691 -4.6567135c0.61992836 -0.79491615 1.3098488 -1.4877834 2.0697613 -2.0786018c0.7699108 -0.5908184 1.6748066 -1.1171837 2.7146854 -1.5790939c1.0498791 -0.46191025 2.294735 -0.8271427 3.7345695 -1.0956974c1.449831 -0.26855278 3.1546345 -0.4350567 5.1144066 -0.4995079l0 52.577354c0 2.5673752 -0.2599678 4.3827896 -0.7799072 5.446266c-0.5199394 1.0527267 -1.2098598 1.7778244 -2.0697613 2.1752777c-0.8599014 0.3974533 -1.8297882 0.64453125 -2.9096642 0.74121094c-1.0698757 0.09667206 -2.129753 0.20946503 -3.1796322 0.33837128l0 2.4814377l32.906197 0l0 -2.4814377c-1.6598091 -0.12890625 -3.0296516 -0.27391815 -4.1095276 -0.43505096c-1.0698738 -0.171875 -1.9447708 -0.45117188 -2.6246948 -0.8378906c-1.0398788 -0.6660156 -1.684803 -1.7885666 -1.9347763 -3.367653c-0.23997116 -1.5898361 -0.35995865 -3.8349457 -0.35995865 -6.735321l0 -49.902565c1.8397903 0.06445122 3.3896103 0.21484184 4.6494637 0.45116806c1.2598534 0.22558594 2.3797264 0.5048809 3.3596115 0.8378868c0.9898834 0.3330059 1.8347855 0.7465763 2.534706 1.2407169c0.70991516 0.49413872 1.4348335 1.0688438 2.1747475 1.7241116c1.2298584 1.127924 2.2397423 2.6640472 3.0296516 4.6083736c0.7999077 1.9443264 1.444828 4.570778 1.9347725 7.8793526l2.6846924 0l-0.1949768 -19.899796z" fill-rule="evenodd"></path><path fill="#000000" d="m72.216286 13.93962l0 2.4653196c2.0897598 0.13964653 3.6545792 0.39208603 4.694458 0.7573185c1.0498734 0.35449028 1.8497849 0.9936466 2.3997192 1.9174709c0.679924 1.0527287 1.0198822 2.4062366 1.0198822 4.060526l0 48.210682c0 1.7187424 -0.27996063 3.1420746 -0.8399048 4.2699966c-0.5499344 1.1171875 -1.7147903 1.8422775 -3.4945908 2.1752853c-0.48994446 0.12890625 -1.0298767 0.22558594 -1.619812 0.29003906c-0.57993317 0.064445496 -1.2998505 0.16112518 -2.159752 0.29003143l0 2.4814377l53.918762 0l3.6745834 -20.592667l-2.5797043 0c-1.2298584 2.9755669 -2.429718 5.338829 -3.5995865 7.0898056c-1.1598663 1.7402267 -2.32473 3.1743011 -3.4945984 4.302223c-2.3897247 2.3095627 -4.99942 3.910141 -7.829094 4.801735c-2.8296661 0.89159393 -5.869316 1.3373947 -9.118942 1.3373947c-1.7198029 0 -3.1046448 -0.09667969 -4.154518 -0.29003906c-1.0398865 -0.20410156 -1.839798 -0.53710175 -2.3997269 -0.9990158c-0.5499344 -0.46191406 -0.91989136 -1.0205002 -1.1098709 -1.6757736c-0.17997742 -0.6660156 -0.26996613 -1.4609375 -0.26996613 -2.384758l0 -24.153679l0.55493164 0c1.289856 0 2.609703 0.09667969 3.9595413 0.29003906c1.3598404 0.19335938 2.6496964 0.62304306 3.8695526 1.2890549c1.2298584 0.6552696 2.3197327 1.5629807 3.2696228 2.7231293c0.9598923 1.1494102 1.6848068 2.6855392 2.1747513 4.6083755c0.23997498 0.9238243 0.44994354 1.9443321 0.6299286 3.0615082c0.18997192 1.1171837 0.3499527 2.2397346 0.47994232 3.3676567l2.3847275 0l0 -33.46711l-2.3847275 0c-0.4299469 3.2978344 -0.9698868 5.8061237 -1.619812 7.5248623c-0.6399231 1.7187424 -1.5748215 3.1367035 -2.8046799 4.2538834c-0.5599365 0.53710556 -1.144867 0.97216034 -1.7547913 1.3051682c-0.60993195 0.32226562 -1.3148499 0.61767197 -2.1147614 0.88622665c-0.79990387 0.2578125 -1.7397919 0.45653915 -2.8196716 0.5961876c-1.0698776 0.12890625 -2.3447342 0.19335938 -3.8245544 0.19335938l0 -23.267456c0 -1.5146408 0.35495758 -2.6157074 1.0648727 -3.3032055c0.7099228 -0.6982384 2.2897415 -1.0473576 4.739456 -1.0473576c1.2298584 0 2.594696 0.048339844 4.0945206 0.14501953c1.5098267 0.09667778 3.014656 0.2631817 4.5144806 0.4995079c1.5098267 0.22558594 2.909668 0.56933403 4.1995163 1.0312443c1.2898483 0.46191406 2.3347244 1.0205059 3.134636 1.6757736c1.5398178 1.3857346 2.7846756 3.056137 3.7345657 5.011204c0.94989777 1.9443264 1.7348099 4.6674576 2.3547287 8.16939l2.2947388 0l0 -19.899796z" fill-rule="evenodd"></path><path fill="#990000" d="m214.0087 13.939639c-7.623642 0 -13.569336 1.7999067 -17.837112 5.3997183c-4.2312927 3.5998135 -6.346939 8.154358 -6.346939 13.663637c0 5.697094 2.0062103 10.110775 6.0186462 13.241047c4.012436 3.0989685 8.827362 5.6657944 14.444778 7.70047c9.192123 3.2867851 14.754822 5.853607 16.688095 7.700466c1.933258 1.8155594 2.899887 4.006748 2.899887 6.573574c0 3.3180847 -1.4408264 5.931862 -4.3224792 7.8413315c-2.881668 1.8781586 -6.1828003 2.8172455 -9.903427 2.8172455c-5.544464 0 -10.632965 -2.050331 -15.265503 -6.1509857c-4.632538 -4.1006546 -7.295334 -9.062138 -7.9884033 -14.884445l-3.392334 0l0 24.650894l3.392334 0c0.32829285 -2.2851028 1.3496399 -3.4276505 3.0640564 -3.4276505c0.9848633 0 3.3558502 0.53214264 7.1129456 1.5964355c3.7571106 1.0642929 7.8242645 1.5964432 12.201462 1.5964432c8.717926 0 15.539078 -1.9877243 20.463425 -5.963173c4.9608307 -4.0067444 7.4412537 -8.702148 7.4412537 -14.08622c0 -4.632801 -1.805603 -8.780411 -5.416794 -12.442829c-3.6111908 -3.6937218 -8.900314 -6.714432 -15.867355 -9.062138c-2.2980347 -0.8451729 -6.0004272 -2.4572601 -11.107162 -4.8362694c-5.106735 -2.3790054 -7.6601105 -5.524929 -7.6601105 -9.437769c0 -2.3790054 1.0578308 -4.4919395 3.1734772 -6.3387985c2.1521301 -1.8468609 5.143219 -2.7702904 8.973267 -2.7702904c5.143219 0 9.629852 1.6903458 13.4599 5.071039c3.8665314 3.34939 6.4746246 7.747423 7.8242645 13.194096l3.3923187 0l0 -21.598875l-3.3923187 0c-0.6201172 2.0972824 -1.860321 3.1459236 -3.7206268 3.1459236c-1.3131714 0 -3.8118134 -0.53214645 -7.4959717 -1.5964394c-3.6476593 -1.064292 -7.2588654 -1.5964384 -10.833572 -1.5964384z" fill-rule="evenodd"></path><path fill="#ffcc00" d="m155.0482 17.788448c5.5177917 0 9.62854 2.6633167 12.33226 7.9899483c2.731308 5.2941513 4.0969543 12.537071 4.0969543 21.72876c0 9.516483 -1.2690887 17.002998 -3.8072662 22.459549c-2.5106049 5.4565506 -6.717911 8.184822 -12.621948 8.184822c-1.5725708 0 -2.7726898 -0.2598343 -3.6003723 -0.77950287c-0.80007935 -0.5196762 -1.200119 -1.5752563 -1.200119 -3.166748l0 -5.4565506l0 -42.28826l0 -3.6539383c0 -1.9162884 0.37245178 -3.2317066 1.1173553 -3.9462547c0.74490356 -0.7145481 1.9726105 -1.0718231 3.683136 -1.0718231zm-25.699127 -3.848816l0 2.8744316c2.483017 0 4.290085 0.6820698 5.421234 2.0462074c1.1311493 1.3316574 1.6967163 3.8975353 1.6967163 7.697632l0 4.7257614l0 36.977863l0 3.069313c0 2.5658798 -0.4414215 4.465927 -1.3242645 5.700142c-0.882843 1.2017441 -2.8140717 1.9000549 -5.793686 2.094925l0 2.8744354l25.40944 0c10.29068 0 18.153534 -3.2479477 23.588562 -9.743835c5.462616 -6.5283737 8.193924 -14.7132 8.193924 -24.554474c0 -9.289127 -2.5381927 -17.230356 -7.614563 -23.823687c-5.0763702 -6.6258106 -12.677124 -9.938715 -22.802277 -9.938715z" fill-rule="evenodd"></path></g></svg>

