<?xml version="1.0" standalone="yes"?>

<svg version="1.1" viewBox="0.0 0.0 486.9265091863517 113.8740157480315" fill="none" stroke="none" stroke-linecap="square" stroke-miterlimit="10" xmlns="http://www.w3.org/2000/svg" xmlns:xlink="http://www.w3.org/1999/xlink"><clipPath id="p.0"><path d="m0 0l486.9265 0l0 113.874016l-486.9265 0l0 -113.874016z" clip-rule="nonzero"></path></clipPath><g clip-path="url(#p.0)"><path fill="#000000" fill-opacity="0.0" d="m0 0l486.9265 0l0 113.874016l-486.9265 0z" fill-rule="evenodd"></path><path fill="#cc0000" d="m153.45766 15.571058c5.572983 0 9.863052 2.5333977 12.8702545 7.600195c3.0072021 5.0667953 4.510788 11.237892 4.510788 18.51329c0 18.968006 -5.6005554 28.452007 -16.801666 28.452007c-5.8488617 0 -9.214722 -0.5196686 -10.097565 -1.5590134c-0.60694885 -1.1692581 -0.9104309 -3.5727386 -0.9104309 -7.210438l0 -38.195847c0 -2.8581944 0.35865784 -4.8719196 1.0759735 -6.0411816c0.66212463 -1.039341 3.641739 -1.5590134 8.938812 -1.5590134zm-25.988792 -5.164234c-0.22071075 0.25983524 -0.33106995 0.8444662 -0.33106995 1.753891c0 0.97438335 0.11035919 1.4615755 0.33106995 1.4615755c0.8276596 0 1.931221 0.22735596 3.3106766 0.6820688c1.3794403 0.45471287 2.1519318 1.0393429 2.3174744 1.753891c0.38624573 1.4290962 0.57936096 4.092413 0.57936096 7.9899483l0 36.831707c0 4.547127 -0.19311523 7.502754 -0.57936096 8.866898c-0.22071838 0.58462524 -1.0207977 1.0880585 -2.400238 1.510292c-1.3794556 0.42223358 -2.4278412 0.63334656 -3.1451492 0.63334656c-0.16553497 0 -0.24829865 0.55215454 -0.24829865 1.656456c0 0.84446716 0.08276367 1.3641357 0.24829865 1.5590134l11.008003 -0.38975525c1.4897919 0 3.931427 0.064964294 7.3248596 0.19487762c3.3934479 0.12992096 5.6695404 0.19487762 6.8282623 0.19487762c8.9388275 0 15.96022 -3.166748 21.064178 -9.500244c5.103958 -6.3334923 7.6559296 -14.177284 7.6559296 -23.531368c0 -8.44466 -2.5243835 -15.785019 -7.573166 -22.021074c-5.0487823 -6.2360573 -12.07016 -9.354085 -21.064163 -9.354085l-14.31868 0c-3.6969147 0 -7.3662415 -0.09743881 -11.007988 -0.29231548z" fill-rule="evenodd"></path><path fill="#000000" fill-opacity="0.0" d="m-0.44356954 73.85958l487.3701 0l0 37.16535l-487.3701 0z" fill-rule="evenodd"></path><path fill="#434343" d="m12.431431 90.74833l-3.40625 0l0 -2.359375l9.625 0l0 2.359375l-3.40625 0l0 10.03125l-2.8125 0l0 -10.03125z" fill-rule="nonzero"></path><path fill="#434343" d="m20.49181 87.24833l1.546875 0l0 3.6875l-0.046875 1.90625q0.65625 -0.625 1.375 -1.078125q0.734375 -0.453125 1.703125 -0.453125q1.453125 0 2.125 0.921875q0.6875 0.90625 0.6875 2.6875l0 5.859375l-1.5625 0l0 -5.640625q0 -1.3125 -0.421875 -1.890625q-0.40625 -0.578125 -1.328125 -0.578125q-0.71875 0 -1.28125 0.359375q-0.546875 0.359375 -1.25 1.0625l0 6.6875l-1.546875 0l0 -13.53125zm9.461502 8.9375q0 -1.140625 0.34375 -2.046875q0.359375 -0.90625 0.9375 -1.53125q0.578125 -0.625 1.3125 -0.953125q0.75 -0.34375 1.546875 -0.34375q0.875 0 1.5625 0.3125q0.703125 0.296875 1.15625 0.875q0.46875 0.5625 0.71875 1.359375q0.25 0.796875 0.25 1.796875q0 0.515625 -0.0625 0.84375l-6.234375 0q0.109375 1.5 0.921875 2.375q0.828125 0.875 2.15625 0.875q0.671875 0 1.234375 -0.1875q0.5625 -0.203125 1.078125 -0.53125l0.546875 1.03125q-0.609375 0.375 -1.359375 0.671875q-0.734375 0.28125 -1.6875 0.28125q-0.921875 0 -1.734375 -0.328125q-0.8125 -0.34375 -1.40625 -0.953125q-0.59375 -0.625 -0.9375 -1.515625q-0.34375 -0.890625 -0.34375 -2.03125zm6.453125 -0.703125q0 -1.421875 -0.59375 -2.171875q-0.59375 -0.765625 -1.6875 -0.765625q-0.484375 0 -0.9375 0.203125q-0.4375 0.203125 -0.8125 0.578125q-0.359375 0.359375 -0.59375 0.90625q-0.234375 0.546875 -0.3125 1.25l4.9375 0zm2.8003845 0.703125q0 -1.15625 0.34375 -2.0625q0.359375 -0.90625 0.9375 -1.53125q0.59375 -0.625 1.359375 -0.953125q0.78125 -0.328125 1.640625 -0.328125q0.84375 0 1.609375 0.328125q0.78125 0.328125 1.359375 0.953125q0.59375 0.625 0.9375 1.53125q0.359375 0.90625 0.359375 2.0625q0 1.140625 -0.359375 2.046875q-0.34375 0.890625 -0.9375 1.515625q-0.578125 0.609375 -1.359375 0.9375q-0.765625 0.328125 -1.609375 0.328125q-0.859375 0 -1.640625 -0.328125q-0.765625 -0.328125 -1.359375 -0.9375q-0.578125 -0.625 -0.9375 -1.515625q-0.34375 -0.90625 -0.34375 -2.046875zm1.609375 0q0 0.796875 0.1875 1.4375q0.203125 0.640625 0.546875 1.109375q0.359375 0.46875 0.84375 0.734375q0.5 0.25 1.09375 0.25q0.578125 0 1.0625 -0.25q0.5 -0.265625 0.84375 -0.734375q0.359375 -0.46875 0.546875 -1.109375q0.203125 -0.640625 0.203125 -1.4375q0 -0.796875 -0.203125 -1.453125q-0.1875 -0.65625 -0.546875 -1.125q-0.34375 -0.484375 -0.84375 -0.734375q-0.484375 -0.265625 -1.0625 -0.265625q-0.59375 0 -1.09375 0.265625q-0.484375 0.25 -0.84375 0.734375q-0.34375 0.46875 -0.546875 1.125q-0.1875 0.65625 -0.1875 1.453125zm9.189819 -4.640625l1.28125 0l0.140625 1.671875l0.0625 0q0.46875 -0.875 1.140625 -1.390625q0.671875 -0.515625 1.46875 -0.515625q0.5625 0 1.0 0.203125l-0.3125 1.359375q-0.21875 -0.078125 -0.421875 -0.109375q-0.1875 -0.046875 -0.46875 -0.046875q-0.59375 0 -1.234375 0.484375q-0.625 0.46875 -1.109375 1.65625l0 5.921875l-1.546875 0l0 -9.234375zm5.7862244 4.640625q0 -1.140625 0.34375 -2.046875q0.359375 -0.90625 0.9375 -1.53125q0.578125 -0.625 1.3125 -0.953125q0.75 -0.34375 1.546875 -0.34375q0.875 0 1.5625 0.3125q0.703125 0.296875 1.15625 0.875q0.46875 0.5625 0.71875 1.359375q0.25 0.796875 0.25 1.796875q0 0.515625 -0.0625 0.84375l-6.234375 0q0.109375 1.5 0.921875 2.375q0.828125 0.875 2.15625 0.875q0.671875 0 1.234375 -0.1875q0.5625 -0.203125 1.078125 -0.53125l0.546875 1.03125q-0.609375 0.375 -1.359375 0.671875q-0.734375 0.28125 -1.6875 0.28125q-0.921875 0 -1.734375 -0.328125q-0.8125 -0.34375 -1.40625 -0.953125q-0.59375 -0.625 -0.9375 -1.515625q-0.34375 -0.890625 -0.34375 -2.03125zm6.453125 -0.703125q0 -1.421875 -0.59375 -2.171875q-0.59375 -0.765625 -1.6875 -0.765625q-0.484375 0 -0.9375 0.203125q-0.4375 0.203125 -0.8125 0.578125q-0.359375 0.359375 -0.59375 0.90625q-0.234375 0.546875 -0.3125 1.25l4.9375 0zm3.7535057 -2.671875l-1.375 0l0 -1.171875l1.453125 -0.09375l0.1875 -2.578125l1.3125 0l0 2.578125l2.484375 0l0 1.265625l-2.484375 0l0 5.140625q0 0.859375 0.3125 1.328125q0.3125 0.453125 1.109375 0.453125q0.25 0 0.53125 -0.078125q0.28125 -0.078125 0.515625 -0.171875l0.296875 1.1875q-0.375 0.125 -0.828125 0.234375q-0.4375 0.109375 -0.875 0.109375q-0.75 0 -1.25 -0.234375q-0.5 -0.234375 -0.8125 -0.625q-0.3125 -0.40625 -0.453125 -0.96875q-0.125 -0.578125 -0.125 -1.25l0 -5.125zm6.8370667 -3.171875q-0.453125 0 -0.78125 -0.28125q-0.3125 -0.28125 -0.3125 -0.71875q0 -0.453125 0.3125 -0.71875q0.328125 -0.28125 0.78125 -0.28125q0.453125 0 0.765625 0.28125q0.3125 0.265625 0.3125 0.71875q0 0.4375 -0.3125 0.71875q-0.3125 0.28125 -0.765625 0.28125zm-0.796875 1.90625l1.546875 0l0 9.234375l-1.546875 0l0 -9.234375zm3.9019318 4.640625q0 -1.15625 0.359375 -2.0625q0.359375 -0.90625 0.96875 -1.53125q0.609375 -0.625 1.40625 -0.953125q0.8125 -0.328125 1.703125 -0.328125q0.921875 0 1.578125 0.34375q0.65625 0.328125 1.125 0.765625l-0.78125 1.0q-0.40625 -0.359375 -0.859375 -0.578125q-0.453125 -0.234375 -1.0 -0.234375q-0.625 0 -1.15625 0.265625q-0.53125 0.25 -0.921875 0.734375q-0.375 0.46875 -0.59375 1.125q-0.21875 0.65625 -0.21875 1.453125q0 0.796875 0.203125 1.4375q0.21875 0.640625 0.578125 1.109375q0.375 0.46875 0.90625 0.734375q0.546875 0.25 1.171875 0.25q0.65625 0 1.203125 -0.265625q0.546875 -0.28125 0.953125 -0.671875l0.703125 1.03125q-0.625 0.546875 -1.390625 0.875q-0.765625 0.328125 -1.609375 0.328125q-0.90625 0 -1.703125 -0.328125q-0.796875 -0.328125 -1.390625 -0.9375q-0.578125 -0.625 -0.90625 -1.515625q-0.328125 -0.90625 -0.328125 -2.046875zm8.741623 2.203125q0 -1.515625 1.34375 -2.328125q1.359375 -0.8125 4.328125 -1.140625q0 -0.421875 -0.09375 -0.84375q-0.078125 -0.421875 -0.296875 -0.734375q-0.21875 -0.328125 -0.578125 -0.53125q-0.359375 -0.203125 -0.921875 -0.203125q-0.828125 0 -1.53125 0.3125q-0.6875 0.296875 -1.234375 0.671875l-0.625 -1.078125q0.640625 -0.421875 1.578125 -0.8125q0.9375 -0.390625 2.046875 -0.390625q1.703125 0 2.453125 1.046875q0.765625 1.03125 0.765625 2.765625l0 5.65625l-1.296875 0l-0.125 -1.109375l-0.046875 0q-0.65625 0.5625 -1.4375 0.953125q-0.765625 0.390625 -1.625 0.390625q-1.171875 0 -1.9375 -0.6875q-0.765625 -0.6875 -0.765625 -1.9375zm1.53125 -0.125q0 0.8125 0.46875 1.15625q0.46875 0.328125 1.140625 0.328125q0.671875 0 1.265625 -0.3125q0.609375 -0.3125 1.265625 -0.921875l0 -2.5625q-1.15625 0.15625 -1.953125 0.375q-0.796875 0.203125 -1.28125 0.484375q-0.484375 0.28125 -0.703125 0.65625q-0.203125 0.375 -0.203125 0.796875zm8.473877 -11.015625l1.546875 0l0 11.78125q0 0.375 0.125 0.53125q0.140625 0.15625 0.3125 0.15625q0.078125 0 0.140625 0q0.078125 0 0.203125 -0.046875l0.21875 1.1875q-0.15625 0.078125 -0.375 0.109375q-0.203125 0.046875 -0.515625 0.046875q-0.90625 0 -1.28125 -0.53125q-0.375 -0.546875 -0.375 -1.5625l0 -11.671875z" fill-rule="nonzero"></path><path fill="#434343" d="m103.88809 97.451454q0 0.515625 0.1875 0.953125q0.203125 0.421875 0.53125 0.734375q0.328125 0.296875 0.765625 0.453125q0.453125 0.15625 0.96875 0.15625q0.640625 0 1.234375 -0.265625q0.59375 -0.265625 1.140625 -0.734375q-0.90625 -0.796875 -1.765625 -1.75q-0.84375 -0.953125 -1.5 -1.953125q-0.671875 0.53125 -1.125 1.109375q-0.4375 0.578125 -0.4375 1.296875zm1.46875 -6.4375q0 0.515625 0.15625 1.0625q0.15625 0.546875 0.4375 1.125q0.40625 -0.28125 0.796875 -0.578125q0.390625 -0.296875 0.6875 -0.609375q0.296875 -0.3125 0.46875 -0.65625q0.171875 -0.359375 0.171875 -0.78125q0 -0.546875 -0.28125 -0.953125q-0.28125 -0.421875 -0.90625 -0.421875q-0.703125 0 -1.125 0.515625q-0.40625 0.515625 -0.40625 1.296875zm7.28125 10.0q-0.671875 -0.203125 -1.390625 -0.546875q-0.71875 -0.359375 -1.484375 -0.890625q-0.71875 0.65625 -1.609375 1.046875q-0.875 0.390625 -1.984375 0.390625q-0.859375 0 -1.546875 -0.25q-0.6875 -0.265625 -1.203125 -0.71875q-0.5 -0.46875 -0.78125 -1.09375q-0.265625 -0.640625 -0.265625 -1.40625q0 -0.625 0.1875 -1.140625q0.203125 -0.515625 0.546875 -0.9375q0.34375 -0.4375 0.78125 -0.8125q0.453125 -0.375 0.9375 -0.703125q-0.390625 -0.765625 -0.609375 -1.5q-0.21875 -0.734375 -0.21875 -1.421875q0 -0.625 0.203125 -1.15625q0.21875 -0.53125 0.59375 -0.921875q0.390625 -0.40625 0.921875 -0.625q0.53125 -0.234375 1.171875 -0.234375q1.15625 0 1.796875 0.6875q0.65625 0.671875 0.65625 1.78125q0 0.609375 -0.25 1.125q-0.234375 0.5 -0.640625 0.953125q-0.40625 0.453125 -0.90625 0.84375q-0.5 0.375 -1.015625 0.765625q0.609375 0.96875 1.4375 1.859375q0.828125 0.890625 1.71875 1.625q0.578125 -0.765625 1.015625 -1.671875q0.453125 -0.921875 0.734375 -2.0l1.46875 0q-0.390625 1.234375 -0.921875 2.359375q-0.53125 1.109375 -1.265625 2.09375q0.640625 0.4375 1.21875 0.75q0.59375 0.296875 1.109375 0.453125l-0.40625 1.296875z" fill-rule="nonzero"></path><path fill="#434343" d="m118.474014 88.388954l7.75 0l0 2.359375l-4.96875 0l0 2.484375l4.21875 0l0 2.34375l-4.21875 0l0 2.84375l5.15625 0l0 2.359375l-7.9375 0l0 -12.390625z" fill-rule="nonzero"></path><path fill="#434343" d="m128.7914 91.545204l1.28125 0l0.140625 1.328125l0.0625 0q0.59375 -0.65625 1.3125 -1.109375q0.71875 -0.453125 1.546875 -0.453125q1.0625 0 1.65625 0.46875q0.609375 0.46875 0.890625 1.3125q0.71875 -0.8125 1.453125 -1.296875q0.734375 -0.484375 1.59375 -0.484375q1.421875 0 2.109375 0.921875q0.703125 0.90625 0.703125 2.6875l0 5.859375l-1.5625 0l0 -5.640625q0 -1.3125 -0.421875 -1.890625q-0.421875 -0.578125 -1.296875 -0.578125q-1.03125 0 -2.3125 1.421875l0 6.6875l-1.5625 0l0 -5.640625q0 -1.3125 -0.421875 -1.890625q-0.40625 -0.578125 -1.296875 -0.578125q-1.046875 0 -2.328125 1.421875l0 6.6875l-1.546875 0l0 -9.234375zm17.012909 10.015625l0 3.109375l-1.546875 0l0 -13.125l1.28125 0l0.140625 1.0625l0.0625 0q0.625 -0.53125 1.375 -0.90625q0.75 -0.390625 1.5625 -0.390625q0.890625 0 1.578125 0.34375q0.6875 0.328125 1.140625 0.953125q0.453125 0.609375 0.6875 1.484375q0.25 0.859375 0.25 1.9375q0 1.171875 -0.328125 2.09375q-0.328125 0.921875 -0.875 1.578125q-0.546875 0.640625 -1.28125 0.984375q-0.71875 0.328125 -1.515625 0.328125q-0.640625 0 -1.28125 -0.28125q-0.640625 -0.296875 -1.28125 -0.796875l0.03125 1.625zm0 -2.828125q0.640625 0.53125 1.21875 0.75q0.59375 0.21875 1.046875 0.21875q0.578125 0 1.0625 -0.25q0.484375 -0.265625 0.828125 -0.734375q0.359375 -0.46875 0.546875 -1.140625q0.203125 -0.6875 0.203125 -1.546875q0 -0.765625 -0.140625 -1.390625q-0.125 -0.625 -0.421875 -1.0625q-0.296875 -0.453125 -0.765625 -0.703125q-0.453125 -0.25 -1.09375 -0.25q-0.59375 0 -1.203125 0.328125q-0.59375 0.328125 -1.28125 0.9375l0 4.84375zm9.604218 -9.09375q-0.453125 0 -0.78125 -0.28125q-0.3125 -0.28125 -0.3125 -0.71875q0 -0.453125 0.3125 -0.71875q0.328125 -0.28125 0.78125 -0.28125q0.453125 0 0.765625 0.28125q0.3125 0.265625 0.3125 0.71875q0 0.4375 -0.3125 0.71875q-0.3125 0.28125 -0.765625 0.28125zm-0.796875 1.90625l1.546875 0l0 9.234375l-1.546875 0l0 -9.234375zm4.589432 0l1.28125 0l0.140625 1.671875l0.0625 0q0.46875 -0.875 1.140625 -1.390625q0.671875 -0.515625 1.46875 -0.515625q0.5625 0 1.0 0.203125l-0.3125 1.359375q-0.21875 -0.078125 -0.421875 -0.109375q-0.1875 -0.046875 -0.46875 -0.046875q-0.59375 0 -1.234375 0.484375q-0.625 0.46875 -1.109375 1.65625l0 5.921875l-1.546875 0l0 -9.234375zm7.2705994 -1.90625q-0.453125 0 -0.78125 -0.28125q-0.3125 -0.28125 -0.3125 -0.71875q0 -0.453125 0.3125 -0.71875q0.328125 -0.28125 0.78125 -0.28125q0.453125 0 0.765625 0.28125q0.3125 0.265625 0.3125 0.71875q0 0.4375 -0.3125 0.71875q-0.3125 0.28125 -0.765625 0.28125zm-0.796875 1.90625l1.546875 0l0 9.234375l-1.546875 0l0 -9.234375zm3.9019318 4.640625q0 -1.15625 0.359375 -2.0625q0.359375 -0.90625 0.96875 -1.53125q0.609375 -0.625 1.40625 -0.953125q0.8125 -0.328125 1.703125 -0.328125q0.921875 0 1.578125 0.34375q0.65625 0.328125 1.125 0.765625l-0.78125 1.0q-0.40625 -0.359375 -0.859375 -0.578125q-0.453125 -0.234375 -1.0 -0.234375q-0.625 0 -1.15625 0.265625q-0.53125 0.25 -0.921875 0.734375q-0.375 0.46875 -0.59375 1.125q-0.21875 0.65625 -0.21875 1.453125q0 0.796875 0.203125 1.4375q0.21875 0.640625 0.578125 1.109375q0.375 0.46875 0.90625 0.734375q0.546875 0.25 1.171875 0.25q0.65625 0 1.203125 -0.265625q0.546875 -0.28125 0.953125 -0.671875l0.703125 1.03125q-0.625 0.546875 -1.390625 0.875q-0.765625 0.328125 -1.609375 0.328125q-0.90625 0 -1.703125 -0.328125q-0.796875 -0.328125 -1.390625 -0.9375q-0.578125 -0.625 -0.90625 -1.515625q-0.328125 -0.90625 -0.328125 -2.046875zm8.741623 2.203125q0 -1.515625 1.34375 -2.328125q1.359375 -0.8125 4.328125 -1.140625q0 -0.421875 -0.09375 -0.84375q-0.078125 -0.421875 -0.296875 -0.734375q-0.21875 -0.328125 -0.578125 -0.53125q-0.359375 -0.203125 -0.921875 -0.203125q-0.828125 0 -1.53125 0.3125q-0.6875 0.296875 -1.234375 0.671875l-0.625 -1.078125q0.640625 -0.421875 1.578125 -0.8125q0.9375 -0.390625 2.046875 -0.390625q1.703125 0 2.453125 1.046875q0.765625 1.03125 0.765625 2.765625l0 5.65625l-1.296875 0l-0.125 -1.109375l-0.046875 0q-0.65625 0.5625 -1.4375 0.953125q-0.765625 0.390625 -1.625 0.390625q-1.171875 0 -1.9375 -0.6875q-0.765625 -0.6875 -0.765625 -1.9375zm1.53125 -0.125q0 0.8125 0.46875 1.15625q0.46875 0.328125 1.140625 0.328125q0.671875 0 1.265625 -0.3125q0.609375 -0.3125 1.265625 -0.921875l0 -2.5625q-1.15625 0.15625 -1.953125 0.375q-0.796875 0.203125 -1.28125 0.484375q-0.484375 0.28125 -0.703125 0.65625q-0.203125 0.375 -0.203125 0.796875zm8.473877 -11.015625l1.546875 0l0 11.78125q0 0.375 0.125 0.53125q0.140625 0.15625 0.3125 0.15625q0.078125 0 0.140625 0q0.078125 0 0.203125 -0.046875l0.21875 1.1875q-0.15625 0.078125 -0.375 0.109375q-0.203125 0.046875 -0.515625 0.046875q-0.90625 0 -1.28125 -0.53125q-0.375 -0.546875 -0.375 -1.5625l0 -11.671875z" fill-rule="nonzero"></path><path fill="#cc0000" d="m196.86758 88.388954l3.484375 0q1.4375 0 2.5625 0.359375q1.140625 0.359375 1.953125 1.109375q0.828125 0.75 1.265625 1.921875q0.4375 1.15625 0.4375 2.75q0 1.59375 -0.4375 2.78125q-0.4375 1.171875 -1.234375 1.9375q-0.796875 0.765625 -1.90625 1.15625q-1.109375 0.375 -2.484375 0.375l-3.640625 0l0 -12.390625zm3.3125 10.125q0.8125 0 1.453125 -0.203125q0.640625 -0.203125 1.09375 -0.671875q0.46875 -0.46875 0.71875 -1.21875q0.25 -0.765625 0.25 -1.890625q0 -1.109375 -0.25 -1.859375q-0.25 -0.75 -0.71875 -1.1875q-0.453125 -0.453125 -1.09375 -0.640625q-0.640625 -0.1875 -1.453125 -0.1875l-0.53125 0l0 7.859375l0.53125 0z" fill-rule="nonzero"></path><path fill="#434343" d="m208.35493 98.388954q0 -1.515625 1.34375 -2.328125q1.359375 -0.8125 4.328125 -1.140625q0 -0.421875 -0.09375 -0.84375q-0.078125 -0.421875 -0.296875 -0.734375q-0.21875 -0.328125 -0.578125 -0.53125q-0.359375 -0.203125 -0.921875 -0.203125q-0.828125 0 -1.53125 0.3125q-0.6875 0.296875 -1.234375 0.671875l-0.625 -1.078125q0.640625 -0.421875 1.578125 -0.8125q0.9375 -0.390625 2.046875 -0.390625q1.703125 0 2.453125 1.046875q0.765625 1.03125 0.765625 2.765625l0 5.65625l-1.296875 0l-0.125 -1.109375l-0.046875 0q-0.65625 0.5625 -1.4375 0.953125q-0.765625 0.390625 -1.625 0.390625q-1.171875 0 -1.9375 -0.6875q-0.765625 -0.6875 -0.765625 -1.9375zm1.53125 -0.125q0 0.8125 0.46875 1.15625q0.46875 0.328125 1.140625 0.328125q0.671875 0 1.265625 -0.3125q0.609375 -0.3125 1.265625 -0.921875l0 -2.5625q-1.15625 0.15625 -1.953125 0.375q-0.796875 0.203125 -1.28125 0.484375q-0.484375 0.28125 -0.703125 0.65625q-0.203125 0.375 -0.203125 0.796875zm8.739502 -5.453125l-1.375 0l0 -1.171875l1.453125 -0.09375l0.1875 -2.578125l1.3125 0l0 2.578125l2.484375 0l0 1.265625l-2.484375 0l0 5.140625q0 0.859375 0.3125 1.328125q0.3125 0.453125 1.109375 0.453125q0.25 0 0.53125 -0.078125q0.28125 -0.078125 0.515625 -0.171875l0.296875 1.1875q-0.375 0.125 -0.828125 0.234375q-0.4375 0.109375 -0.875 0.109375q-0.75 0 -1.25 -0.234375q-0.5 -0.234375 -0.8125 -0.625q-0.3125 -0.40625 -0.453125 -0.96875q-0.125 -0.578125 -0.125 -1.25l0 -5.125zm5.5870667 5.578125q0 -1.515625 1.34375 -2.328125q1.359375 -0.8125 4.328125 -1.140625q0 -0.421875 -0.09375 -0.84375q-0.078125 -0.421875 -0.296875 -0.734375q-0.21875 -0.328125 -0.578125 -0.53125q-0.359375 -0.203125 -0.921875 -0.203125q-0.828125 0 -1.53125 0.3125q-0.6875 0.296875 -1.234375 0.671875l-0.625 -1.078125q0.640625 -0.421875 1.578125 -0.8125q0.9375 -0.390625 2.046875 -0.390625q1.703125 0 2.453125 1.046875q0.765625 1.03125 0.765625 2.765625l0 5.65625l-1.296875 0l-0.125 -1.109375l-0.046875 0q-0.65625 0.5625 -1.4375 0.953125q-0.765625 0.390625 -1.625 0.390625q-1.171875 0 -1.9375 -0.6875q-0.765625 -0.6875 -0.765625 -1.9375zm1.53125 -0.125q0 0.8125 0.46875 1.15625q0.46875 0.328125 1.140625 0.328125q0.671875 0 1.265625 -0.3125q0.609375 -0.3125 1.265625 -0.921875l0 -2.5625q-1.15625 0.15625 -1.953125 0.375q-0.796875 0.203125 -1.28125 0.484375q-0.484375 0.28125 -0.703125 0.65625q-0.203125 0.375 -0.203125 0.796875z" fill-rule="nonzero"></path><path fill="#ffcc00" d="m238.80151 97.295204q0.65625 0.578125 1.46875 0.9375q0.8125 0.359375 1.578125 0.359375q0.875 0 1.296875 -0.3125q0.4375 -0.328125 0.4375 -0.875q0 -0.296875 -0.125 -0.5q-0.125 -0.203125 -0.359375 -0.359375q-0.234375 -0.171875 -0.578125 -0.3125q-0.328125 -0.140625 -0.71875 -0.3125l-1.625 -0.6875q-0.46875 -0.1875 -0.921875 -0.484375q-0.4375 -0.3125 -0.796875 -0.71875q-0.34375 -0.40625 -0.5625 -0.953125q-0.203125 -0.546875 -0.203125 -1.234375q0 -0.75 0.328125 -1.421875q0.328125 -0.671875 0.90625 -1.171875q0.59375 -0.515625 1.390625 -0.796875q0.8125 -0.28125 1.78125 -0.28125q1.09375 0 2.140625 0.421875q1.0625 0.40625 1.859375 1.203125l-1.4375 1.765625q-0.59375 -0.46875 -1.203125 -0.71875q-0.609375 -0.265625 -1.359375 -0.265625q-0.71875 0 -1.15625 0.296875q-0.421875 0.296875 -0.421875 0.828125q0 0.28125 0.140625 0.484375q0.15625 0.203125 0.40625 0.359375q0.25 0.15625 0.59375 0.296875q0.34375 0.140625 0.75 0.3125l1.59375 0.65625q1.140625 0.453125 1.796875 1.25q0.65625 0.796875 0.65625 2.109375q0 0.78125 -0.3125 1.484375q-0.3125 0.6875 -0.921875 1.203125q-0.59375 0.515625 -1.46875 0.84375q-0.875 0.3125 -1.96875 0.3125q-1.21875 0 -2.4375 -0.453125q-1.203125 -0.453125 -2.140625 -1.34375l1.59375 -1.921875z" fill-rule="nonzero"></path><path fill="#434343" d="m247.78377 96.18583q0 -1.15625 0.359375 -2.0625q0.359375 -0.90625 0.96875 -1.53125q0.609375 -0.625 1.40625 -0.953125q0.8125 -0.328125 1.703125 -0.328125q0.921875 0 1.578125 0.34375q0.65625 0.328125 1.125 0.765625l-0.78125 1.0q-0.40625 -0.359375 -0.859375 -0.578125q-0.453125 -0.234375 -1.0 -0.234375q-0.625 0 -1.15625 0.265625q-0.53125 0.25 -0.921875 0.734375q-0.375 0.46875 -0.59375 1.125q-0.21875 0.65625 -0.21875 1.453125q0 0.796875 0.203125 1.4375q0.21875 0.640625 0.578125 1.109375q0.375 0.46875 0.90625 0.734375q0.546875 0.25 1.171875 0.25q0.65625 0 1.203125 -0.265625q0.546875 -0.28125 0.953125 -0.671875l0.703125 1.03125q-0.625 0.546875 -1.390625 0.875q-0.765625 0.328125 -1.609375 0.328125q-0.90625 0 -1.703125 -0.328125q-0.796875 -0.328125 -1.390625 -0.9375q-0.578125 -0.625 -0.90625 -1.515625q-0.328125 -0.90625 -0.328125 -2.046875zm9.991623 -6.546875q-0.453125 0 -0.78125 -0.28125q-0.3125 -0.28125 -0.3125 -0.71875q0 -0.453125 0.3125 -0.71875q0.328125 -0.28125 0.78125 -0.28125q0.453125 0 0.765625 0.28125q0.3125 0.265625 0.3125 0.71875q0 0.4375 -0.3125 0.71875q-0.3125 0.28125 -0.765625 0.28125zm-0.796875 1.90625l1.546875 0l0 9.234375l-1.546875 0l0 -9.234375zm3.901947 4.640625q0 -1.140625 0.34375 -2.046875q0.359375 -0.90625 0.9375 -1.53125q0.578125 -0.625 1.3125 -0.953125q0.75 -0.34375 1.546875 -0.34375q0.875 0 1.5625 0.3125q0.703125 0.296875 1.15625 0.875q0.46875 0.5625 0.71875 1.359375q0.25 0.796875 0.25 1.796875q0 0.515625 -0.0625 0.84375l-6.234375 0q0.109375 1.5 0.921875 2.375q0.828125 0.875 2.15625 0.875q0.671875 0 1.234375 -0.1875q0.5625 -0.203125 1.078125 -0.53125l0.546875 1.03125q-0.609375 0.375 -1.359375 0.671875q-0.734375 0.28125 -1.6875 0.28125q-0.921875 0 -1.734375 -0.328125q-0.8125 -0.34375 -1.40625 -0.953125q-0.59375 -0.625 -0.9375 -1.515625q-0.34375 -0.890625 -0.34375 -2.03125zm6.453125 -0.703125q0 -1.421875 -0.59375 -2.171875q-0.59375 -0.765625 -1.6875 -0.765625q-0.484375 0 -0.9375 0.203125q-0.4375 0.203125 -0.8125 0.578125q-0.359375 0.359375 -0.59375 0.90625q-0.234375 0.546875 -0.3125 1.25l4.9375 0zm3.487854 -3.9375l1.28125 0l0.140625 1.328125l0.0625 0q0.65625 -0.65625 1.390625 -1.109375q0.734375 -0.453125 1.703125 -0.453125q1.453125 0 2.125 0.921875q0.6875 0.90625 0.6875 2.6875l0 5.859375l-1.5625 0l0 -5.640625q0 -1.3125 -0.421875 -1.890625q-0.40625 -0.578125 -1.328125 -0.578125q-0.71875 0 -1.28125 0.359375q-0.546875 0.359375 -1.25 1.0625l0 6.6875l-1.546875 0l0 -9.234375zm9.517487 4.640625q0 -1.15625 0.359375 -2.0625q0.359375 -0.90625 0.96875 -1.53125q0.609375 -0.625 1.40625 -0.953125q0.8125 -0.328125 1.703125 -0.328125q0.921875 0 1.578125 0.34375q0.65625 0.328125 1.125 0.765625l-0.78125 1.0q-0.40625 -0.359375 -0.859375 -0.578125q-0.453125 -0.234375 -1.0 -0.234375q-0.625 0 -1.15625 0.265625q-0.53125 0.25 -0.921875 0.734375q-0.375 0.46875 -0.59375 1.125q-0.21875 0.65625 -0.21875 1.453125q0 0.796875 0.203125 1.4375q0.21875 0.640625 0.578125 1.109375q0.375 0.46875 0.90625 0.734375q0.546875 0.25 1.171875 0.25q0.65625 0 1.203125 -0.265625q0.546875 -0.28125 0.953125 -0.671875l0.703125 1.03125q-0.625 0.546875 -1.390625 0.875q-0.765625 0.328125 -1.609375 0.328125q-0.90625 0 -1.703125 -0.328125q-0.796875 -0.328125 -1.390625 -0.9375q-0.578125 -0.625 -0.90625 -1.515625q-0.328125 -0.90625 -0.328125 -2.046875zm8.507233 0q0 -1.140625 0.34375 -2.046875q0.359375 -0.90625 0.9375 -1.53125q0.578125 -0.625 1.3125 -0.953125q0.75 -0.34375 1.546875 -0.34375q0.875 0 1.5625 0.3125q0.703125 0.296875 1.15625 0.875q0.46875 0.5625 0.71875 1.359375q0.25 0.796875 0.25 1.796875q0 0.515625 -0.0625 0.84375l-6.234375 0q0.109375 1.5 0.921875 2.375q0.828125 0.875 2.15625 0.875q0.671875 0 1.234375 -0.1875q0.5625 -0.203125 1.078125 -0.53125l0.546875 1.03125q-0.609375 0.375 -1.359375 0.671875q-0.734375 0.28125 -1.6875 0.28125q-0.921875 0 -1.734375 -0.328125q-0.8125 -0.34375 -1.40625 -0.953125q-0.59375 -0.625 -0.9375 -1.515625q-0.34375 -0.890625 -0.34375 -2.03125zm6.453125 -0.703125q0 -1.421875 -0.59375 -2.171875q-0.59375 -0.765625 -1.6875 -0.765625q-0.484375 0 -0.9375 0.203125q-0.4375 0.203125 -0.8125 0.578125q-0.359375 0.359375 -0.59375 0.90625q-0.234375 0.546875 -0.3125 1.25l4.9375 0zm7.3970947 -7.171875l1.578125 0l0 11.125l5.453125 0l0 1.34375l-7.03125 0l0 -12.46875zm8.473206 10.078125q0 -1.515625 1.34375 -2.328125q1.359375 -0.8125 4.328125 -1.140625q0 -0.421875 -0.09375 -0.84375q-0.078125 -0.421875 -0.296875 -0.734375q-0.21875 -0.328125 -0.578125 -0.53125q-0.359375 -0.203125 -0.921875 -0.203125q-0.828125 0 -1.53125 0.3125q-0.6875 0.296875 -1.234375 0.671875l-0.625 -1.078125q0.640625 -0.421875 1.578125 -0.8125q0.9375 -0.390625 2.046875 -0.390625q1.703125 0 2.453125 1.046875q0.765625 1.03125 0.765625 2.765625l0 5.65625l-1.296875 0l-0.125 -1.109375l-0.046875 0q-0.65625 0.5625 -1.4375 0.953125q-0.765625 0.390625 -1.625 0.390625q-1.171875 0 -1.9375 -0.6875q-0.765625 -0.6875 -0.765625 -1.9375zm1.53125 -0.125q0 0.8125 0.46875 1.15625q0.46875 0.328125 1.140625 0.328125q0.671875 0 1.265625 -0.3125q0.609375 -0.3125 1.265625 -0.921875l0 -2.5625q-1.15625 0.15625 -1.953125 0.375q-0.796875 0.203125 -1.28125 0.484375q-0.484375 0.28125 -0.703125 0.65625q-0.203125 0.375 -0.203125 0.796875zm8.473877 -11.015625l1.546875 0l0 3.6875l-0.03125 1.671875q0.625 -0.546875 1.359375 -0.921875q0.75 -0.375 1.53125 -0.375q0.890625 0 1.578125 0.34375q0.6875 0.328125 1.140625 0.953125q0.46875 0.609375 0.703125 1.484375q0.25 0.859375 0.25 1.921875q0 1.171875 -0.328125 2.109375q-0.328125 0.921875 -0.875 1.578125q-0.546875 0.640625 -1.28125 0.984375q-0.71875 0.328125 -1.515625 0.328125q-0.640625 0 -1.34375 -0.296875q-0.6875 -0.296875 -1.296875 -0.84375l-0.0625 0l-0.125 0.90625l-1.25 0l0 -13.53125zm1.546875 11.484375q0.609375 0.53125 1.203125 0.75q0.609375 0.21875 1.0625 0.21875q0.578125 0 1.0625 -0.25q0.484375 -0.265625 0.828125 -0.734375q0.359375 -0.46875 0.546875 -1.140625q0.203125 -0.6875 0.203125 -1.546875q0 -0.765625 -0.140625 -1.390625q-0.125 -0.625 -0.421875 -1.0625q-0.296875 -0.453125 -0.765625 -0.703125q-0.453125 -0.25 -1.09375 -0.25q-1.125 0 -2.484375 1.265625l0 4.84375zm8.119812 -2.546875q0 -1.15625 0.34375 -2.0625q0.359375 -0.90625 0.9375 -1.53125q0.59375 -0.625 1.359375 -0.953125q0.78125 -0.328125 1.640625 -0.328125q0.84375 0 1.609375 0.328125q0.78125 0.328125 1.359375 0.953125q0.59375 0.625 0.9375 1.53125q0.359375 0.90625 0.359375 2.0625q0 1.140625 -0.359375 2.046875q-0.34375 0.890625 -0.9375 1.515625q-0.578125 0.609375 -1.359375 0.9375q-0.765625 0.328125 -1.609375 0.328125q-0.859375 0 -1.640625 -0.328125q-0.765625 -0.328125 -1.359375 -0.9375q-0.578125 -0.625 -0.9375 -1.515625q-0.34375 -0.90625 -0.34375 -2.046875zm1.609375 0q0 0.796875 0.1875 1.4375q0.203125 0.640625 0.546875 1.109375q0.359375 0.46875 0.84375 0.734375q0.5 0.25 1.09375 0.25q0.578125 0 1.0625 -0.25q0.5 -0.265625 0.84375 -0.734375q0.359375 -0.46875 0.546875 -1.109375q0.203125 -0.640625 0.203125 -1.4375q0 -0.796875 -0.203125 -1.453125q-0.1875 -0.65625 -0.546875 -1.125q-0.34375 -0.484375 -0.84375 -0.734375q-0.484375 -0.265625 -1.0625 -0.265625q-0.59375 0 -1.09375 0.265625q-0.484375 0.25 -0.84375 0.734375q-0.34375 0.46875 -0.546875 1.125q-0.1875 0.65625 -0.1875 1.453125zm9.189819 -4.640625l1.28125 0l0.140625 1.671875l0.0625 0q0.46875 -0.875 1.140625 -1.390625q0.671875 -0.515625 1.46875 -0.515625q0.5625 0 1.0 0.203125l-0.3125 1.359375q-0.21875 -0.078125 -0.421875 -0.109375q-0.1875 -0.046875 -0.46875 -0.046875q-0.59375 0 -1.234375 0.484375q-0.625 0.46875 -1.109375 1.65625l0 5.921875l-1.546875 0l0 -9.234375zm6.02063 6.84375q0 -1.515625 1.34375 -2.328125q1.359375 -0.8125 4.328125 -1.140625q0 -0.421875 -0.09375 -0.84375q-0.078125 -0.421875 -0.296875 -0.734375q-0.21875 -0.328125 -0.578125 -0.53125q-0.359375 -0.203125 -0.921875 -0.203125q-0.828125 0 -1.53125 0.3125q-0.6875 0.296875 -1.234375 0.671875l-0.625 -1.078125q0.640625 -0.421875 1.578125 -0.8125q0.9375 -0.390625 2.046875 -0.390625q1.703125 0 2.453125 1.046875q0.765625 1.03125 0.765625 2.765625l0 5.65625l-1.296875 0l-0.125 -1.109375l-0.046875 0q-0.65625 0.5625 -1.4375 0.953125q-0.765625 0.390625 -1.625 0.390625q-1.171875 0 -1.9375 -0.6875q-0.765625 -0.6875 -0.765625 -1.9375zm1.53125 -0.125q0 0.8125 0.46875 1.15625q0.46875 0.328125 1.140625 0.328125q0.671875 0 1.265625 -0.3125q0.609375 -0.3125 1.265625 -0.921875l0 -2.5625q-1.15625 0.15625 -1.953125 0.375q-0.796875 0.203125 -1.28125 0.484375q-0.484375 0.28125 -0.703125 0.65625q-0.203125 0.375 -0.203125 0.796875zm8.739502 -5.453125l-1.375 0l0 -1.171875l1.453125 -0.09375l0.1875 -2.578125l1.3125 0l0 2.578125l2.484375 0l0 1.265625l-2.484375 0l0 5.140625q0 0.859375 0.3125 1.328125q0.3125 0.453125 1.109375 0.453125q0.25 0 0.53125 -0.078125q0.28125 -0.078125 0.515625 -0.171875l0.296875 1.1875q-0.375 0.125 -0.828125 0.234375q-0.4375 0.109375 -0.875 0.109375q-0.75 0 -1.25 -0.234375q-0.5 -0.234375 -0.8125 -0.625q-0.3125 -0.40625 -0.453125 -0.96875q-0.125 -0.578125 -0.125 -1.25l0 -5.125zm5.352661 3.375q0 -1.15625 0.34375 -2.0625q0.359375 -0.90625 0.9375 -1.53125q0.59375 -0.625 1.359375 -0.953125q0.78125 -0.328125 1.640625 -0.328125q0.84375 0 1.609375 0.328125q0.78125 0.328125 1.359375 0.953125q0.59375 0.625 0.9375 1.53125q0.359375 0.90625 0.359375 2.0625q0 1.140625 -0.359375 2.046875q-0.34375 0.890625 -0.9375 1.515625q-0.578125 0.609375 -1.359375 0.9375q-0.765625 0.328125 -1.609375 0.328125q-0.859375 0 -1.640625 -0.328125q-0.765625 -0.328125 -1.359375 -0.9375q-0.578125 -0.625 -0.9375 -1.515625q-0.34375 -0.90625 -0.34375 -2.046875zm1.609375 0q0 0.796875 0.1875 1.4375q0.203125 0.640625 0.546875 1.109375q0.359375 0.46875 0.84375 0.734375q0.5 0.25 1.09375 0.25q0.578125 0 1.0625 -0.25q0.5 -0.265625 0.84375 -0.734375q0.359375 -0.46875 0.546875 -1.109375q0.203125 -0.640625 0.203125 -1.4375q0 -0.796875 -0.203125 -1.453125q-0.1875 -0.65625 -0.546875 -1.125q-0.34375 -0.484375 -0.84375 -0.734375q-0.484375 -0.265625 -1.0625 -0.265625q-0.59375 0 -1.09375 0.265625q-0.484375 0.25 -0.84375 0.734375q-0.34375 0.46875 -0.546875 1.125q-0.1875 0.65625 -0.1875 1.453125zm9.189819 -4.640625l1.28125 0l0.140625 1.671875l0.0625 0q0.46875 -0.875 1.140625 -1.390625q0.671875 -0.515625 1.46875 -0.515625q0.5625 0 1.0 0.203125l-0.3125 1.359375q-0.21875 -0.078125 -0.421875 -0.109375q-0.1875 -0.046875 -0.46875 -0.046875q-0.59375 0 -1.234375 0.484375q-0.625 0.46875 -1.109375 1.65625l0 5.921875l-1.546875 0l0 -9.234375zm5.848755 11.78125q0.140625 0.03125 0.328125 0.078125q0.203125 0.046875 0.375 0.046875q0.796875 0 1.296875 -0.5625q0.5 -0.546875 0.78125 -1.40625l0.21875 -0.6875l-3.703125 -9.25l1.609375 0l1.875 5.109375q0.21875 0.609375 0.453125 1.28125q0.234375 0.671875 0.4375 1.328125l0.078125 0q0.21875 -0.625 0.40625 -1.3125q0.1875 -0.6875 0.375 -1.296875l1.65625 -5.109375l1.515625 0l-3.46875 10.0q-0.25 0.671875 -0.5625 1.265625q-0.296875 0.59375 -0.71875 1.015625q-0.40625 0.4375 -0.953125 0.671875q-0.53125 0.25 -1.234375 0.25q-0.3125 0 -0.578125 -0.046875q-0.265625 -0.046875 -0.5 -0.140625l0.3125 -1.234375l0 0z" fill-rule="nonzero"></path><path fill="#434343" d="m18.012949 10.065605l-1.7098026 14.695234c0.4199505 0.5156231 1.1998615 0.7734337 2.3397293 0.7734337c0.539938 0 0.8399029 -0.19335747 0.8998966 -0.5800743c0.8998947 -3.4804516 2.0397644 -5.8490906 3.4196033 -7.105921c1.3798409 -1.2568283 3.5395908 -1.8852434 6.479252 -1.8852434c5.2193947 0 8.069065 0.5478487 8.549011 1.6435461c0.53993607 0.90233994 0.809906 4.0282993 0.809906 9.37788l0 34.997864c0 3.6093597 -0.23997116 6.284149 -0.7199173 8.024376c-0.17997742 0.5156174 -1.0348778 0.9990158 -2.564701 1.4501877c-1.5298233 0.45116425 -2.6546936 0.6767502 -3.374611 0.6767502c-0.23997307 0 -0.35995865 0.5800781 -0.35995865 1.7402267c0 0.7734299 0.11998558 1.2890549 0.35995865 1.5468674c0.65992355 -0.064453125 2.4147224 -0.19335938 5.264393 -0.38671875c2.8496704 -0.19335938 5.0844116 -0.29003906 6.7042236 -0.29003906c1.1998596 0 2.4447174 0.032226562 3.7345695 0.09667969c1.2898483 0.064453125 2.699688 0.16113281 4.2295074 0.29003906c1.5298233 0.12890625 2.6846924 0.22558594 3.4645996 0.29003906c0.11998749 -0.38671875 0.17998123 -0.90234375 0.17998123 -1.5468674c0 -1.1601486 -0.11998749 -1.7402267 -0.35995865 -1.7402267c-0.53993607 0 -1.589817 -0.24169922 -3.1496353 -0.72509c-1.5598221 -0.48339844 -2.369728 -0.9506836 -2.429718 -1.4018478c-0.5399399 -2.1269455 -0.8099098 -4.930641 -0.8099098 -8.411091l0 -34.901184c0 -4.18943 0.26996994 -7.218712 0.8099098 -9.087843c0.23997116 -1.0956974 3.1496353 -1.6435461 8.728989 -1.6435461c2.939659 0 5.099411 0.6284151 6.479252 1.8852434c1.379837 1.2568302 2.489708 3.6576958 3.3296127 7.2026005c0.11998749 0.32226372 0.4199524 0.48339462 0.8998947 0.48339462c1.1998672 0 2.0097733 -0.22558403 2.4297256 -0.676754l-1.7098083 -14.791914c-2.6396942 0.64452744 -4.70945 0.9667921 -6.209278 0.9667921c-2.4597168 0.06445217 -5.7293396 0.17724514 -9.808868 0.338377c-4.079529 0.16113186 -7.4091415 0.24169731 -9.988846 0.24169731c-2.5797005 0 -5.8943176 -0.08056545 -9.943848 -0.24169731c-4.049534 -0.16113186 -7.3041573 -0.27392483 -9.763872 -0.338377c-1.4998264 0 -3.5695877 -0.32226467 -6.209282 -0.9667921z" fill-rule="evenodd"></path><path fill="#434343" d="m117.54144 10.839039c-3.419609 0 -8.4590225 0.112792015 -15.118256 0.338377c-6.6592255 0.22558498 -11.308693 0.338377 -13.948387 0.338377c-4.0195312 0 -8.009071 -0.1289053 -11.968613 -0.38671684c-0.23997498 0.25781155 -0.35996246 0.83788586 -0.35996246 1.7402248c0 0.9667921 0.11998749 1.4501877 0.35996246 1.4501877c0.8998947 0 2.0997543 0.22558498 3.5995789 0.67675495c1.4998322 0.451169 2.339737 1.0312433 2.5197144 1.7402258c0.4199524 1.4179611 0.6299286 4.060524 0.6299286 7.9276924l0 36.544727c0 4.5116997 -0.2099762 7.4443016 -0.6299286 8.79781c-0.23997498 0.5800705 -1.1098709 1.0795822 -2.609703 1.4985275c-1.4998245 0.41893768 -2.6396942 0.62841034 -3.4196014 0.62841034c-0.17997742 0 -0.26996613 0.54785156 -0.26996613 1.643547c0 0.837883 0.08998871 1.353508 0.26996613 1.5468674l11.968613 -0.38671875c1.2238617 -0.05155945 2.8052826 -0.07733917 4.744255 -0.07733917c2.9084702 0 6.621437 0.058006287 11.138908 0.17401886c7.5291367 0.19335938 12.493561 0.29003906 14.89328 0.29003906c0.11998749 -0.96678925 0.3899536 -2.2236252 0.809906 -3.770485c0.4199524 -1.5468674 0.809906 -2.8520432 1.1698685 -3.915512c0.35995483 -1.0634689 0.8848953 -2.6264496 1.5748138 -4.688938c0.68992615 -2.0624886 1.1248703 -3.38377 1.3048553 -3.963848c-0.35996246 -0.38671494 -1.1998672 -0.5800743 -2.5197144 -0.5800743c-0.7799072 0 -1.1998596 0.19335938 -1.2598495 0.5800743c-0.65992737 2.1913948 -1.5898209 4.1572075 -2.7896805 5.8974304c-1.1998596 1.7402267 -2.2797394 2.8681488 -3.239624 3.3837738c-2.4597168 1.353508 -6.0293045 2.0302582 -10.708763 2.0302582l-3.3296127 0c-3.779564 0 -5.8193283 -0.41893768 -6.119293 -1.2568283c-0.5399399 -1.6757736 -0.809906 -4.28611 -0.809906 -7.8310127l0 -14.985271c0 -0.5156212 2.159752 -0.7734337 6.479248 -0.7734337c4.739456 0 7.4991302 0.2578125 8.279045 0.7734337c0.4199524 0.32226562 0.6749191 0.5156212 0.76490784 0.5800743c0.08998871 0.064453125 0.2999649 0.5156212 0.6299286 1.353508c0.32996368 0.8378868 0.7049179 2.1269417 1.1248703 3.8671684c0.17997742 0.5156212 0.65992737 0.7734337 1.4398346 0.7734337c0.8998947 0 1.4698257 -0.12890625 1.7098007 -0.38671875l0 -18.272362c-0.2999649 -0.32226562 -0.86989594 -0.48339844 -1.7098007 -0.48339844c-0.8998947 0 -1.3798447 0.22558594 -1.4398346 0.676754c-0.17997742 0.64453125 -0.35995483 1.4501877 -0.5399399 2.4169807c-0.35995483 1.9335823 -0.86989594 3.0615082 -1.5298233 3.38377c-0.65991974 0.32226562 -2.729683 0.48339844 -6.209282 0.48339844l-5.0394135 0c-2.6396942 0 -3.9595413 -0.19335938 -3.9595413 -0.5800743l0 -15.178633c0 -3.4159966 0.17997742 -6.026335 0.53993225 -7.8310127c0.11998749 -0.8378868 2.3997269 -1.2568302 6.8392105 -1.2568302l4.6794586 0c5.699341 0 9.538902 2.8681488 11.518669 8.604446c0.17997742 0.45116997 0.5999298 0.6767559 1.2598572 0.6767559c0.95988464 0 1.5898132 -0.16113281 1.8897781 -0.48339653c-0.05998993 -0.32226372 -0.44994354 -2.207508 -1.1698608 -5.655731c-0.7199173 -3.448225 -1.1998596 -6.1391287 -1.4398346 -8.072712z" fill-rule="evenodd"></path><path fill="#ffcc00" d="m208.14133 10.905519c-5.763321 0 -10.943008 1.6120901 -15.539078 4.8362703c-4.5960693 3.2241802 -6.894104 7.1839733 -6.894104 11.879381c0 1.8155575 0.3465271 3.5059032 1.0395966 5.071041c0.6930542 1.565136 1.4772949 2.8798485 2.3527374 3.9441414c0.8754425 1.0642929 2.1703644 2.2068405 3.884781 3.4276466c1.7144012 1.2208061 3.118744 2.1442375 4.2130585 2.7702904c1.0942993 0.62605286 2.6992645 1.5025291 4.814911 2.6294289c0.5836334 0.31302643 0.98487854 0.56344986 1.2037354 0.7512665c0.6565857 0.31302643 1.7691193 0.8608246 3.337616 1.6433907c1.5684967 0.7825699 2.7539978 1.392971 3.556488 1.8312073c0.80249023 0.43824005 1.8055878 1.0642929 3.0093231 1.8781662c1.2037354 0.8138695 2.1156464 1.565136 2.7357483 2.2537956c0.6201172 0.68865967 1.1672668 1.5338326 1.6414642 2.5355186c0.4741974 1.0016861 0.71128845 2.0346756 0.71128845 3.0989685c0 3.5059052 -1.1307831 6.13533 -3.392334 7.888283c-2.261551 1.7529526 -5.106735 2.6294327 -8.535553 2.6294327c-2.6992645 0 -5.1249695 -0.48519135 -7.2770996 -1.4555817c-2.1521301 -0.9703827 -3.8665314 -2.2224884 -5.143219 -3.7563248c-1.2766724 -1.5338326 -2.2797852 -2.973755 -3.0093231 -4.3197746c-0.72953796 -1.3460159 -1.2402039 -2.5824738 -1.5320129 -3.7093697c-0.21887207 -0.50084305 -1.2766876 -0.7512665 -3.1734772 -0.7512665c-1.0942993 0 -1.6779327 0.25042343 -1.750885 0.7512665c0 1.0642929 0.27357483 3.3024368 0.8207245 6.714432c0.54714966 3.411995 1.1490173 6.2448883 1.805603 8.498688c9.046219 1.7529526 15.757935 2.629425 20.135132 2.629425c6.20105 0 11.654312 -1.627739 16.359802 -4.8832245c4.7055054 -3.255478 7.058243 -7.387436 7.058243 -12.39587c0 -1.7529526 -0.29180908 -3.396347 -0.8754425 -4.9301796c-0.58361816 -1.5338326 -1.2219696 -2.8015938 -1.9150238 -3.8032799c-0.6930542 -1.0016861 -1.805603 -2.065979 -3.337616 -3.1928787c-1.5320282 -1.1268959 -2.6992798 -1.9251175 -3.50177 -2.3946571c-0.802475 -0.46953964 -2.206833 -1.2208061 -4.2130585 -2.2537956c-2.0062103 -1.0329895 -3.22818 -1.7059975 -3.6659088 -2.019024c-0.36476135 -0.12520981 -1.4043427 -0.64170456 -3.1187592 -1.5494843c-1.7144012 -0.9077797 -2.8087006 -1.5181808 -3.282898 -1.8312111c-0.4741974 -0.31302643 -1.3861084 -0.8764763 -2.7357483 -1.6903458c-1.3496399 -0.8138695 -2.2615662 -1.4868774 -2.7357635 -2.019024c-0.4741974 -0.53214645 -1.0942993 -1.2051563 -1.8603058 -2.0190258c-0.76600647 -0.8138714 -1.2766876 -1.6433926 -1.5320282 -2.4885654c-0.25532532 -0.8451748 -0.3829956 -1.7373009 -0.3829956 -2.676382c0 -2.7546406 0.89367676 -4.9458294 2.6810303 -6.573572c1.7873688 -1.6277409 4.358963 -2.4416113 7.7148285 -2.4416113c3.8665314 0 7.1494293 1.3773203 9.848709 4.131959c2.6992798 2.7546387 4.2677765 5.571884 4.70549 8.451733c0.14590454 0.56344986 1.2037354 0.8451748 3.1734772 0.8451748c0.72953796 0 1.1672516 -0.28172493 1.3131561 -0.8451748c0 -5.3840675 -0.43771362 -10.204685 -1.3131561 -14.461854c-1.021347 -0.18781662 -2.8999023 -0.5791006 -5.6356506 -1.173852c-2.7357483 -0.5947523 -4.869644 -0.9860363 -6.401657 -1.173852c-1.5320282 -0.18781662 -3.3193817 -0.28172493 -5.362076 -0.28172493z" fill-rule="evenodd"></path></g></svg>

